<svg height="512" width="512" xmlns="http://www.w3.org/2000/svg">
  <path d="M413 440h54c17 0 31-14 31-31v-90h-85z" fill="#ffd88f"/>
  <path d="M413 358h54c17 0 31-14 31-31v-90h-85z" fill="#ff7893"/>
  <path d="M413 276h54c17 0 31-14 31-31v-91h-85z" fill="#59a1a5"/>
  <path d="M413 193h54c17 0 31-14 31-31v-59c0-17-14-31-31-31h-54z" fill="#ff9e5e"/>
  <g>
    <path d="M392 505H117c-31 0-56-25-56-56V63c0-31 25-55 56-55h275c31 0 56 24 56 55v386c0 31-25 55-56 55z" fill="#fff7e8"/>
    <path d="M392 8h-40c31 0 56 24 56 55v386c0 31-25 55-56 55h40c31 1 56-24 56-55V63c0-31-25-56-56-56z" fill="#fff1d6"/>
    <path d="M117 8C86 8 61 32 61 63v386c0 31 25 55 56 55h35V9z" fill="#59a1a5"/>
    <g fill="#b5e8e0">
      <path d="M88 111H35a21 21 0 110-41h53a21 21 0 110 41zM88 221H35a21 21 0 010-41h53a21 21 0 110 41zM88 332H35a21 21 0 010-41h53a21 21 0 110 41zM88 442H35a21 21 0 010-41h53a21 21 0 110 41z"/>
    </g>
    <g fill="#97dbd1">
      <path d="M88 70H48a21 21 0 110 41h40a21 21 0 100-41zM88 180H48a21 21 0 110 41h40a21 21 0 100-41zM88 291H48a21 21 0 110 41h40a21 21 0 100-41zM88 401H48a21 21 0 110 41h40a21 21 0 100-41z"/>
    </g>
  </g>
  <g>
    <path d="M467 65h-12c1-35-27-65-63-65H117C82 0 54 28 54 62H35a28 28 0 000 57h19v54H35a28 28 0 000 56h19v54H35a28 28 0 000 56h19v54H35a28 28 0 000 57h19c0 34 28 62 63 62h275c36 0 64-30 63-65h12c21 0 38-17 38-38V103c0-21-17-38-38-38zm23 262c0 13-10 23-23 23h-12v-66h12c9 0 17-3 23-8zm0-82c0 13-10 24-23 24h-12v-68h12c9 0 17-3 23-8v52zM467 80c13 0 23 10 23 23v59c0 13-10 24-23 24h-12V80zM22 91c0-8 6-14 13-14h53a13 13 0 010 27H35c-7 0-13-6-13-13zm0 110c0-7 6-13 13-13h53a13 13 0 010 26H35c-7 0-13-6-13-13zm0 110c0-7 6-13 13-13h53a13 13 0 010 26H35c-7 0-13-6-13-13zm0 110c0-7 6-13 13-13h53a13 13 0 010 27H35c-7 0-13-6-13-14zm445 11h-12v-11c0-9-15-9-15 0v28c0 26-21 48-48 48H159V111c0-10-15-10-15 0v386h-27c-26 0-48-21-48-47h19a28 28 0 000-57H69v-54h19a28 28 0 000-56H69v-54h19a28 28 0 000-56H69v-54h19a28 28 0 000-57H69c0-26 22-47 48-47h27v57c0 10 15 10 15 0V15h233c27 0 48 22 48 48v320c0 9 15 9 15 0v-18h12c9 0 17-3 23-7v51c0 13-10 23-23 23z"/>
    <path d="M335 207a62 62 0 10-79 0 94 94 0 00-54 85c0 9 15 9 15 0 0-36 24-67 58-76 7-2 7-11 1-14-16-8-27-24-27-42a47 47 0 1167 42c-7 3-6 12 1 14 34 9 58 40 58 76 0 9 15 9 15 0 0-37-22-70-55-85zM382 349H210c-10 0-10 15 0 15h172c10 0 10-15 0-15zM352 398H240c-10 0-10 15 0 15h112c10 0 10-15 0-15z"/>
  </g>
</svg>
