<svg height="512" width="512" xmlns="http://www.w3.org/2000/svg">
  <g data-name="filled outline">
    <path d="M472 488l-432 1V153L256 24l216 128z" fill="#0292c9"/>
    <path d="M400 489l5.8-20.2A306.3 306.3 0 00416.6 345a306.3 306.3 0 00-49.4-134.1 228.6 228.6 0 00-57.3-59.3 125.4 125.4 0 00-48.3-20.9 52.2 52.2 0 00-26.8 1.7l-19 6.3a36 36 0 00-22 20.8L184 184l-47.8 23.9a16 16 0 00-6.1 23.2L152 264l47.2-4.3v229.2z" fill="#fbb540"/>
    <path d="M344 212.2a32 32 0 01-64 0v-16.7a70.4 70.4 0 00-10-36.2l-8.2-13.6a91.9 91.9 0 00-12.1-16h1.7a52 52 0 0110.2 1 125.4 125.4 0 0148.3 21q5 3.6 10 7.5a70.3 70.3 0 0124.1 53zM143.7 234.9L136 240l-6-9a16 16 0 016.2-23.1L152 200l1.8 5.4a25.6 25.6 0 01-10.1 29.5z" fill="#fbb540"/>
    <path d="M369 317.4l-49 49-49-49a23.8 23.8 0 01-7-16.8 23.8 23.8 0 0123.8-23.8 23.8 23.8 0 0116.8 7l15.4 15.4 15.4-15.4a23.8 23.8 0 0116.8-7 23.8 23.8 0 0123.8 23.8 23.8 23.8 0 01-7 16.8z" fill="#e82f3e"/>
    <g fill="#d18d28">
      <circle cx="221" cy="189" r="11"/>
      <path d="M199.2 259.7l35.6-3.2a9.3 9.3 0 007.5-5.1 7.5 7.5 0 0113-1 7.5 7.5 0 01.2 8.2 22.7 22.7 0 01-16.8 10.8l-38.7 4.4zM344 212.2a32 32 0 01-64 0v-16.7a70.4 70.4 0 00-10-36.2l-8.2-13.6a91.9 91.9 0 00-12.1-16h1.7a52 52 0 0110.2 1 125.4 125.4 0 0148.3 21l4.6 3.2q2.8 2 5.4 4.3a70.3 70.3 0 0124.1 53zM143.7 234.9L136 240l-6-9a16 16 0 016.2-23.1L152 200l1.8 5.4a25.6 25.6 0 01-10.1 29.5z"/>
    </g>
    <path d="M272 416l2.2.6A74.2 74.2 0 01328 488v1H128l-4.8-16.7A200 200 0 01145.6 306L152 296l1.9-3.7a51.2 51.2 0 0145.7-28.3h.4v32l27.9 14a46 46 0 0124.5 32l3.6 18 .8.8a24 24 0 011.8 32L256 396z" fill="#fbfdff"/>
    <path d="M218.5 424a52.4 52.4 0 01-37.3-15.4l-2.9-3a8 8 0 0111.4-11.3l2.9 3a36.7 36.7 0 0054.6-3l2.6-3.3a8 8 0 1112.4 10l-2.5 3.2a52.4 52.4 0 01-41.2 19.8z" fill="#cbcbcb"/>
    <circle cx="216" cy="352" fill="#cbcbcb" r="11"/>
    <path d="M352.2 268.8a31.5 31.5 0 00-22.4 9.3l-9.8 9.8-9.8-9.8a31.8 31.8 0 10-44.9 45l49 49a8 8 0 0011.4 0l49-49a31.8 31.8 0 00-22.5-54.3zm11.2 42.9L320 355.1l-43.4-43.4a15.8 15.8 0 0122.3-22.3l15.4 15.5a8 8 0 0011.4 0l15.4-15.5a15.8 15.8 0 0122.3 22.3z"/>
    <path d="M476 145.1l-216-128a8 8 0 00-8.1 0l-216 129a8 8 0 00-3.9 6.8v336a8 8 0 008 8l432-.9a8 8 0 008-8V152a8 8 0 00-4-6.9zM192 272.7V296a8 8 0 004.4 7.2l27.9 13.9a37.8 37.8 0 0120.3 26.5l3.6 18a8 8 0 002.1 4l.9.9a16 16 0 011.1 21.3l-2.5 3.2-2.6 3.2a36.7 36.7 0 01-54.6 3l-3-2.9a8 8 0 00-11.3 11.4l3 2.9a52.7 52.7 0 0074.5 0l10 12.4a8 8 0 004 2.7l2.2.6a66.6 66.6 0 0147.5 55.7H134l-3-10a191.7 191.7 0 0121.4-159.6l6.5-10.1a8 8 0 00.4-.7l1.8-3.7a43 43 0 0131-23.2zM276.7 409l-10.5-13a32 32 0 00-2.8-39.9l-3.1-15.6a53.7 53.7 0 00-28.8-37.7L208 291v-24.2l32.7-3a8 8 0 006.5-4.3l8-16a8 8 0 00-14.4-7.2l-6 12-78.8 7.2-9-13.4 1.1-.7a33.7 33.7 0 0013.7-37.4l25.8-13a8 8 0 003.8-4.1l9.8-24.5a28 28 0 0117.2-16.2l19-6.3a44.2 44.2 0 019-2 84 84 0 018.6 11.8l8.1 13.6a62.4 62.4 0 018.9 32.1v16.7a40 40 0 1080 0 78 78 0 00-.6-9.7q4.8 6.2 9.2 12.8a299.7 299.7 0 0148 130.6 296.6 296.6 0 01-10.5 120.6l-4.1 13.7h-58.4a82.6 82.6 0 00-59-71.2zm-140-182.4a8 8 0 013-11.5l7.3-3.6a17.7 17.7 0 01-7.7 16.7l-1 .7zM315 165.5a62.5 62.5 0 0121.1 46.7 23.9 23.9 0 01-13.3 21.5 24.1 24.1 0 01-21.4 0 23.9 23.9 0 01-13.3-21.5v-16.7a78.4 78.4 0 00-11.2-40.3l-8.1-13.6-.7-1.2a116.6 116.6 0 0137.3 17.8q5 3.5 9.6 7.3zM464 480l-53.3.1 2.7-9a312.5 312.5 0 0011.1-127A315.8 315.8 0 00374 206.3a235.6 235.6 0 00-48.7-53.2l-6-4.8a8 8 0 00-.8-.4l-3.8-2.9a132.6 132.6 0 00-51.4-22.2 60.3 60.3 0 00-30.9 1.9l-19 6.3a44 44 0 00-27 25.4l-8.6 21.7-45 22.5a24 24 0 00-9.3 34.8l6 9 16 24a8 8 0 007.3 3.5l7.1-.7a59.4 59.4 0 00-13.1 17.4L145 292l-6.2 9.8a207.7 207.7 0 00-23.3 172.8l1.9 6.2-69.4.1V157.5L256 33.3l208 123.3z"/>
    <circle cx="216" cy="352" r="11"/>
    <circle cx="221" cy="189" r="11"/>
  </g>
</svg>
