<svg xmlns="http://www.w3.org/2000/svg" width="210" height="75">
  <g fill="#ed1c24" fill-rule="evenodd">
    <path d="M91.928 12.723h4.417c1.609 0 2.42.795 2.42 2.59v6.362h8.652v-6.362c0-1.795.799-2.59 2.614-2.59h4.223v4.18h-1.803l-.205.205v17.904h-4.829V26.06h-8.652v8.952h-4.829V17.108s0-.204-.205-.204h-1.803v-4.181zM126.925 12.325l.108.012v4.59l-.108-.023c-3.619 0-6.438 2.988-6.438 6.77 0 3.977 2.82 7.157 6.438 7.157l.108-.024v4.59l-.108.013c-6.438 0-11.666-5.169-11.666-11.735 0-6.374 5.228-11.35 11.666-11.35z"/>
    <path d="M127.033 12.337l2.24.217c5.312 1.036 9.317 5.542 9.317 11.12 0 5.736-4.005 10.422-9.318 11.495l-2.239.229v-4.59l2.457-.53c2.372-1.085 4.078-3.627 4.078-6.603a6.76 6.76 0 00-4.078-6.241l-2.457-.506v-4.59zM139.595 12.723h9.959v4.18H146.431v4.579h3.123v3.976h-3.122v4.976c0 .205 0 .205.206.205h2.916v4.373h-5.53c-1.61 0-2.408-.795-2.408-2.59V16.904h-2.021v-4.181zM149.554 12.723h.097c4.429 0 7.043 2.385 7.043 5.976 0 2.18-1.005 3.578-2.01 4.578 1.816.795 3.014 2.783 3.014 4.964 0 4.18-3.219 6.771-7.841 6.771h-.303v-4.373h.496c1.61 0 2.626-1 2.626-2.59 0-1.591-1.016-2.591-2.626-2.591h-.496v-3.976h.097c1.416 0 2.214-1 2.214-2.386 0-1.397-.798-2.192-2.214-2.192h-.097v-4.181zM166.956 12.723h2.408v6.373c-.194.398-.4.988-.4 1.59l-1.609 4.58h2.009v4.168h-3.207l-1.416 3.59c-.4 1.386-1.198 1.988-2.807 1.988h-3.026v-4.373h1.005c.411 0 .411 0 .605-.205l6.438-17.711z"/>
    <path d="M169.364 12.723h2.42l6.438 17.71c.194.206.194.206.593.206h.81v4.373h-2.819c-1.61 0-2.408-.602-2.82-2.193l-1.403-3.385H169.363v-4.169h2.01l-1.598-4.578c0-.603-.205-1.193-.411-1.59v-6.374zM91.928 41.373h17.498c1.61 0 2.614.796 2.614 2.59v15.121c0 .193 0 .193.206.193h1.61v4.386h-4.224c-1.815 0-2.614-.796-2.614-2.59V45.758s0-.205-.206-.205h-8.047v18.109h-4.829V45.554h-2.008v-4.18zM126.525 40.976l.097.012v4.59l-.097-.024c-3.63 0-6.438 2.988-6.438 6.771 0 3.976 2.808 7.157 6.438 7.157l.097-.024v4.59l-.097.012c-6.438 0-11.472-5.18-11.472-11.735 0-6.373 5.034-11.35 11.472-11.35z"/>
    <path d="M126.622 40.988l2.311.217c5.41 1.036 9.258 5.542 9.258 11.12 0 5.735-3.848 10.422-9.258 11.494l-2.311.23v-4.591l2.553-.53c2.409-1.085 3.994-3.627 3.994-6.603 0-2.843-1.585-5.229-3.994-6.24l-2.553-.507v-4.59zM139.195 41.373h4.43c1.609 0 2.408.796 2.408 2.59v15.121c0 .193 0 .193.205.193h5.833V41.373h4.828v17.904h5.833c.206 0 .206 0 .206-.193v-15.12c0-1.795.799-2.59 2.408-2.59h4.43v4.18h-1.816c-.206 0-.206.205-.206.205v15.313c0 1.795-.798 2.59-2.408 2.59h-21.528c-1.803 0-2.614-.795-2.614-2.59V45.76s0-.205-.194-.205h-1.815v-4.18zM173.587 41.373h15.09c1.816 0 2.42.796 2.42 2.386v3.783h-4.428V45.76c0-.205 0-.205-.206-.205h-2.808v18.109h-4.84V45.554h-2.808c-.205 0-.205 0-.205.205v1.783h-4.43V43.76c0-1.59.606-2.386 2.215-2.386zM197.33 41.373h2.408v6.374c-.206.398-.4.988-.4 1.59l-1.609 4.579h2.009v4.168h-3.219l-1.404 3.386c-.399 1.59-1.21 2.193-2.82 2.193h-3.012v-4.386h1.004c.411 0 .411 0 .605-.193l6.438-17.71zM199.738 41.373h2.408l6.45 17.711c.194.193.194.193.605.193H210v4.386h-2.82c-1.61 0-2.408-.603-2.82-2.193l-1.403-3.386h-3.219v-4.168h2.009l-1.61-4.579c0-.602-.193-1.192-.399-1.59v-6.374zM60.924 22.205c.23-.072.532.072.835.47L75.433 36c.8.795.8 2 0 2.59L61.76 52.12c-.303.398-.605.494-.835.374-.23-.12-.375-.47-.375-.976V23.072c0-.494.145-.795.375-.867zM37.532 0h.968l.932.386 14.074 13.927c.605.795.4 1.398-.605 1.398h-5.833a1.788 1.788 0 00-1.803 1.795v10.337c0 1-.81 1.796-2.021 1.796h-10.25a1.799 1.799 0 01-1.815-1.796V17.506c0-1-.799-1.795-1.815-1.795h-6.232c-1.005 0-1.21-.603-.605-1.398L36.612.386l.92-.386zM15.484 21.904c.254.12.411.47.411.976v29.036c0 .506-.157.807-.411.903-.242.097-.593 0-1.005-.3L.6 38.59C-.2 38-.2 36.795.599 36l13.88-13.723c.412-.397.763-.494 1.005-.373zM32.994 44.759h10.25c1.21 0 2.02.795 2.02 1.795v10.94c0 1.193.8 1.988 1.804 1.988h5.434c1.004 0 1.403.59.605 1.193L39.432 74.398c-.411.397-.907.602-1.416.602a2.001 2.001 0 01-1.404-.602L22.938 60.675c-.81-.603-.411-1.193.593-1.193h5.833c1.016 0 1.815-.795 1.815-1.988v-10.94c0-1 .81-1.795 1.815-1.795z"/>
  </g>
</svg>
