<?xml version="1.0" encoding="UTF-8"?>
<svg xmlns="http://www.w3.org/2000/svg" xmlns:xlink="http://www.w3.org/1999/xlink" width="24pt" height="24pt" viewBox="0 0 24 24" version="1.1">
<g id="surface1">
<path style=" stroke:none;fill-rule:nonzero;fill:rgb(25.098039%,77.647059%,76.078431%);fill-opacity:1;" d="M 23.597656 11.300781 C 23.597656 9.300781 18.402344 7.679688 11.996094 7.679688 C 5.589844 7.679688 0.394531 9.300781 0.394531 11.300781 C 0.394531 11.300781 0.296875 14.023438 0.394531 14.925781 C 0.472656 15.675781 0.765625 17.054688 1.0625 18.375 C 1.507812 20.316406 3.234375 21.691406 5.230469 21.691406 L 18.761719 21.691406 C 20.753906 21.691406 22.484375 20.316406 22.925781 18.375 C 23.226562 17.054688 23.515625 15.675781 23.597656 14.925781 C 23.691406 14.023438 23.597656 11.300781 23.597656 11.300781 Z M 23.597656 11.300781 "/>
<path style=" stroke:none;fill-rule:nonzero;fill:rgb(12.156863%,60.784314%,57.254902%);fill-opacity:1;" d="M 3.109375 18.273438 C 2.835938 16.917969 2.570312 15.496094 2.5 14.722656 C 2.410156 13.796875 2.5 10.992188 2.5 10.992188 C 2.5 9.871094 3.894531 8.863281 6.109375 8.179688 C 2.6875 8.808594 0.394531 9.972656 0.394531 11.304688 C 0.394531 11.304688 0.296875 14.023438 0.394531 14.925781 C 0.472656 15.675781 0.765625 17.054688 1.0625 18.375 C 1.507812 20.316406 3.234375 21.691406 5.230469 21.691406 L 6.898438 21.691406 C 5.082031 21.691406 3.511719 20.273438 3.109375 18.273438 Z M 3.109375 18.273438 "/>
<path style=" stroke:none;fill-rule:nonzero;fill:rgb(74.901961%,75.686275%,75.686275%);fill-opacity:1;" d="M 16.734375 14.855469 C 16.132812 14.78125 15.554688 14.800781 15.027344 14.898438 C 14.617188 14.976562 14.195312 14.953125 13.796875 14.820312 C 13.257812 14.644531 12.644531 14.542969 11.996094 14.542969 C 11.34375 14.542969 10.730469 14.644531 10.191406 14.820312 C 9.796875 14.953125 9.375 14.976562 8.964844 14.898438 C 8.4375 14.800781 7.855469 14.78125 7.257812 14.855469 C 5.125 15.117188 3.535156 16.464844 3.710938 17.871094 C 3.882812 19.273438 5.734375 19.9375 7.882812 19.9375 L 16.109375 19.9375 C 18.257812 19.9375 20.109375 19.273438 20.28125 17.871094 C 20.453125 16.464844 18.867188 15.117188 16.734375 14.855469 Z M 16.734375 14.855469 "/>
<path style=" stroke:none;fill-rule:nonzero;fill:rgb(100%,68.627451%,36.078431%);fill-opacity:1;" d="M 17.664062 9.550781 C 17.597656 9.253906 17.175781 9.246094 17.097656 9.535156 C 17.011719 9.835938 16.882812 10.128906 16.730469 10.417969 C 16.378906 11.0625 15.8125 11.585938 15.140625 11.882812 L 15.925781 13.691406 C 16.792969 13.164062 17.433594 12.277344 17.664062 11.289062 C 17.800781 10.71875 17.796875 10.121094 17.664062 9.550781 Z M 17.664062 9.550781 "/>
<path style=" stroke:none;fill-rule:nonzero;fill:rgb(83.921569%,49.803922%,24.313725%);fill-opacity:1;" d="M 17.203125 11.507812 C 16.6875 10.988281 15.792969 10.851562 15.207031 11.289062 L 14.027344 16.253906 L 15.21875 16.253906 C 15.675781 15.984375 16.121094 15.699219 16.519531 15.347656 C 17.066406 14.867188 17.523438 14.253906 17.695312 13.542969 C 17.867188 12.835938 17.714844 12.023438 17.203125 11.507812 Z M 17.203125 11.507812 "/>
<path style=" stroke:none;fill-rule:nonzero;fill:rgb(83.921569%,49.803922%,24.313725%);fill-opacity:1;" d="M 6.789062 11.507812 C 7.300781 10.988281 8.199219 10.851562 8.785156 11.289062 L 9.964844 16.253906 L 8.769531 16.253906 C 8.3125 15.984375 7.867188 15.699219 7.472656 15.347656 C 6.921875 14.867188 6.464844 14.253906 6.292969 13.542969 C 6.121094 12.835938 6.273438 12.023438 6.789062 11.507812 Z M 6.789062 11.507812 "/>
<path style=" stroke:none;fill-rule:nonzero;fill:rgb(83.921569%,49.803922%,24.313725%);fill-opacity:1;" d="M 9.996094 8.164062 L 13.996094 8.164062 L 13.996094 16.253906 L 9.996094 16.253906 Z M 9.996094 8.164062 "/>
<path style=" stroke:none;fill-rule:nonzero;fill:rgb(93.72549%,93.333333%,77.254902%);fill-opacity:1;" d="M 10.757812 16.253906 L 13.230469 16.253906 L 13.230469 13.296875 C 13.230469 12.613281 12.679688 12.058594 11.996094 12.058594 C 11.3125 12.058594 10.757812 12.613281 10.757812 13.296875 Z M 10.757812 16.253906 "/>
<path style=" stroke:none;fill-rule:nonzero;fill:rgb(100%,68.627451%,36.078431%);fill-opacity:1;" d="M 14.621094 8.742188 L 13.230469 9.421875 L 13.230469 16.253906 L 14.441406 16.253906 L 15.871094 11.957031 C 16.28125 10.722656 15.757812 9.375 14.621094 8.742188 Z M 14.621094 8.742188 "/>
<path style=" stroke:none;fill-rule:nonzero;fill:rgb(100%,68.627451%,36.078431%);fill-opacity:1;" d="M 9.371094 8.742188 L 10.757812 9.421875 L 10.757812 16.253906 L 9.546875 16.253906 L 8.121094 11.957031 C 7.710938 10.722656 8.234375 9.375 9.371094 8.742188 Z M 9.371094 8.742188 "/>
<path style=" stroke:none;fill-rule:nonzero;fill:rgb(92.941176%,92.941176%,92.941176%);fill-opacity:1;" d="M 9.464844 14.847656 C 8.757812 14.847656 8.171875 15.371094 8.074219 16.050781 C 8.058594 16.160156 8.144531 16.253906 8.25 16.253906 L 10.679688 16.253906 C 10.789062 16.253906 10.875 16.160156 10.859375 16.050781 C 10.761719 15.371094 10.175781 14.847656 9.464844 14.847656 Z M 9.464844 14.847656 "/>
<path style=" stroke:none;fill-rule:nonzero;fill:rgb(92.941176%,92.941176%,92.941176%);fill-opacity:1;" d="M 14.523438 14.847656 C 13.816406 14.847656 13.230469 15.371094 13.132812 16.050781 C 13.117188 16.160156 13.203125 16.253906 13.308594 16.253906 L 15.738281 16.253906 C 15.847656 16.253906 15.933594 16.160156 15.917969 16.050781 C 15.820312 15.371094 15.234375 14.847656 14.523438 14.847656 Z M 14.523438 14.847656 "/>
<path style=" stroke:none;fill-rule:nonzero;fill:rgb(83.921569%,49.803922%,24.313725%);fill-opacity:1;" d="M 13.648438 2.949219 L 14.53125 2.4375 C 14.671875 2.355469 14.835938 2.3125 14.996094 2.3125 L 15.515625 2.3125 C 16.601562 2.3125 17.503906 3.152344 17.578125 4.238281 L 17.648438 5.25 C 17.683594 5.769531 17.300781 6.226562 16.78125 6.28125 C 16.605469 6.300781 16.421875 6.269531 16.261719 6.191406 L 14.34375 5.265625 Z M 13.648438 2.949219 "/>
<path style=" stroke:none;fill-rule:nonzero;fill:rgb(83.921569%,49.803922%,24.313725%);fill-opacity:1;" d="M 10.34375 2.949219 L 9.460938 2.4375 C 9.316406 2.355469 9.15625 2.3125 8.992188 2.3125 L 8.472656 2.3125 C 7.386719 2.3125 6.488281 3.152344 6.414062 4.238281 L 6.34375 5.25 C 6.304688 5.769531 6.6875 6.226562 7.207031 6.28125 C 7.386719 6.300781 7.566406 6.269531 7.726562 6.191406 L 9.644531 5.265625 Z M 10.34375 2.949219 "/>
<path style=" stroke:none;fill-rule:nonzero;fill:rgb(100%,68.627451%,36.078431%);fill-opacity:1;" d="M 10.816406 9.582031 L 9.550781 9.015625 C 8.726562 8.648438 8.195312 7.828125 8.195312 6.925781 L 8.195312 6.570312 C 8.195312 6.183594 8.292969 5.808594 8.472656 5.46875 L 9.585938 3.386719 C 9.941406 2.726562 10.628906 2.3125 11.382812 2.3125 L 12.609375 2.3125 C 13.359375 2.3125 14.050781 2.726562 14.40625 3.386719 L 15.519531 5.46875 C 15.699219 5.808594 15.792969 6.183594 15.792969 6.570312 L 15.792969 6.925781 C 15.792969 7.828125 15.265625 8.648438 14.441406 9.015625 L 13.171875 9.582031 C 12.421875 9.917969 11.566406 9.917969 10.816406 9.582031 Z M 10.816406 9.582031 "/>
<path style=" stroke:none;fill-rule:nonzero;fill:rgb(89.803922%,45.098039%,71.764706%);fill-opacity:1;" d="M 13.128906 9.429688 C 13.128906 10.054688 12.621094 10.5625 11.996094 10.5625 C 11.367188 10.5625 10.859375 10.054688 10.859375 9.429688 C 10.859375 8.800781 11.367188 8.292969 11.996094 8.292969 C 12.621094 8.292969 13.128906 8.800781 13.128906 9.429688 Z M 13.128906 9.429688 "/>
<path style=" stroke:none;fill-rule:nonzero;fill:rgb(93.72549%,93.333333%,77.254902%);fill-opacity:1;" d="M 13.316406 7.242188 C 12.695312 7.242188 11.292969 7.242188 10.675781 7.242188 C 9.910156 7.242188 9.292969 7.863281 9.292969 8.625 C 9.292969 9.390625 9.910156 10.007812 10.675781 10.007812 C 11.292969 10.007812 11.820312 9.601562 11.996094 9.042969 C 12.171875 9.601562 12.695312 10.007812 13.316406 10.007812 C 14.078125 10.007812 14.699219 9.390625 14.699219 8.625 C 14.699219 7.863281 14.078125 7.242188 13.316406 7.242188 Z M 13.316406 7.242188 "/>
<path style=" stroke:none;fill-rule:nonzero;fill:rgb(78.823529%,78.039216%,57.647059%);fill-opacity:1;" d="M 13.316406 7.242188 L 12.488281 7.242188 C 13.25 7.242188 13.871094 7.863281 13.871094 8.625 C 13.871094 9.246094 13.464844 9.769531 12.902344 9.945312 C 13.03125 9.988281 13.171875 10.007812 13.316406 10.007812 C 14.078125 10.007812 14.699219 9.390625 14.699219 8.625 C 14.699219 7.863281 14.078125 7.242188 13.316406 7.242188 Z M 13.316406 7.242188 "/>
<path style=" stroke:none;fill-rule:nonzero;fill:rgb(35.686275%,34.509804%,42.745098%);fill-opacity:1;" d="M 13 6.960938 C 13 7.566406 12.550781 8.054688 11.996094 8.054688 C 11.441406 8.054688 10.988281 7.566406 10.988281 6.960938 C 10.988281 6.359375 13 6.359375 13 6.960938 Z M 13 6.960938 "/>
<path style=" stroke:none;fill-rule:nonzero;fill:rgb(45.098039%,57.647059%,84.705882%);fill-opacity:1;" d="M 23.597656 11.300781 C 23.597656 12.484375 21.78125 13.535156 18.976562 14.195312 C 18.449219 14.320312 18.039062 14.753906 17.917969 15.304688 L 17.511719 17.167969 C 17.363281 17.835938 16.796875 18.308594 16.140625 18.308594 L 7.851562 18.308594 C 7.195312 18.308594 6.628906 17.835938 6.480469 17.167969 L 6.074219 15.304688 C 5.953125 14.753906 5.539062 14.320312 5.011719 14.195312 C 2.207031 13.535156 0.394531 12.484375 0.394531 11.300781 C 0.394531 11.300781 0.296875 14.023438 0.394531 14.925781 C 0.472656 15.675781 0.765625 17.054688 1.0625 18.375 C 1.507812 20.316406 3.234375 21.691406 5.230469 21.691406 L 18.761719 21.691406 C 20.753906 21.691406 22.484375 20.316406 22.925781 18.375 C 23.226562 17.054688 23.515625 15.675781 23.597656 14.925781 C 23.691406 14.023438 23.597656 11.300781 23.597656 11.300781 Z M 23.597656 11.300781 "/>
<path style=" stroke:none;fill-rule:nonzero;fill:rgb(23.921569%,43.529412%,71.764706%);fill-opacity:1;" d="M 23.597656 11.300781 C 23.597656 12.039062 22.894531 12.71875 21.695312 13.292969 C 21.699219 13.933594 21.691406 14.570312 21.65625 14.925781 C 21.582031 15.675781 21.316406 17.054688 21.042969 18.375 C 20.636719 20.316406 19.050781 21.691406 17.222656 21.691406 L 18.761719 21.691406 C 20.753906 21.691406 22.484375 20.316406 22.925781 18.375 C 23.226562 17.054688 23.515625 15.675781 23.597656 14.925781 C 23.691406 14.023438 23.597656 11.300781 23.597656 11.300781 Z M 23.597656 11.300781 "/>
<path style=" stroke:none;fill-rule:nonzero;fill:rgb(100%,68.627451%,36.078431%);fill-opacity:1;" d="M 19.074219 20.265625 L 4.917969 20.265625 C 3.246094 20.265625 1.753906 19.382812 0.988281 18.035156 C 1.011719 18.148438 1.039062 18.261719 1.0625 18.375 C 1.507812 20.316406 3.234375 21.691406 5.230469 21.691406 L 18.761719 21.691406 C 20.753906 21.691406 22.484375 20.316406 22.925781 18.375 C 22.953125 18.261719 22.976562 18.148438 23.003906 18.035156 C 22.238281 19.382812 20.742188 20.265625 19.074219 20.265625 Z M 19.074219 20.265625 "/>
<path style=" stroke:none;fill-rule:nonzero;fill:rgb(83.921569%,49.803922%,24.313725%);fill-opacity:1;" d="M 23.003906 18.035156 C 22.425781 19.050781 21.433594 19.800781 20.269531 20.109375 C 19.542969 21.085938 18.4375 21.691406 17.222656 21.691406 L 18.761719 21.691406 C 20.628906 21.691406 22.449219 20.484375 22.964844 18.210938 C 22.96875 18.183594 22.996094 18.058594 23.003906 18.035156 Z M 23.003906 18.035156 "/>
<path style=" stroke:none;fill-rule:nonzero;fill:rgb(0%,0%,0%);fill-opacity:1;" d="M 23.9375 11.296875 C 23.933594 9.703125 21.414062 8.363281 17.199219 7.710938 C 17.003906 7.679688 16.828125 7.8125 16.796875 8.003906 C 16.765625 8.195312 16.898438 8.375 17.089844 8.40625 C 21.335938 9.0625 23.238281 10.335938 23.238281 11.304688 C 23.238281 12.039062 22.09375 13.097656 18.890625 13.851562 C 18.414062 13.964844 18.011719 14.28125 17.769531 14.707031 C 17.707031 14.691406 17.644531 14.671875 17.582031 14.65625 C 17.796875 14.324219 17.949219 13.976562 18.03125 13.625 C 18.183594 13.003906 18.117188 12.367188 17.859375 11.84375 C 17.917969 11.691406 17.964844 11.53125 18.003906 11.371094 C 18.144531 10.757812 18.144531 10.101562 18 9.472656 C 17.933594 9.179688 17.6875 8.980469 17.386719 8.972656 C 17.089844 8.964844 16.832031 9.15625 16.753906 9.441406 C 16.679688 9.699219 16.570312 9.964844 16.414062 10.25 C 16.375 10.324219 16.332031 10.394531 16.289062 10.464844 C 16.257812 10.320312 16.214844 10.175781 16.164062 10.039062 C 15.992188 9.574219 15.703125 9.15625 15.335938 8.828125 C 15.84375 8.335938 16.140625 7.652344 16.140625 6.929688 L 16.140625 6.574219 C 16.140625 6.558594 16.140625 6.542969 16.140625 6.527344 C 16.308594 6.601562 16.492188 6.640625 16.675781 6.640625 C 16.726562 6.640625 16.773438 6.636719 16.8125 6.632812 C 17.523438 6.558594 18.042969 5.945312 17.992188 5.230469 L 17.925781 4.21875 C 17.90625 3.964844 17.851562 3.71875 17.757812 3.484375 C 17.683594 3.304688 17.480469 3.21875 17.300781 3.289062 C 17.121094 3.363281 17.03125 3.566406 17.105469 3.746094 C 17.171875 3.910156 17.210938 4.085938 17.222656 4.265625 L 17.292969 5.28125 C 17.316406 5.613281 17.074219 5.902344 16.738281 5.933594 C 16.722656 5.9375 16.699219 5.9375 16.675781 5.9375 C 16.585938 5.9375 16.492188 5.917969 16.410156 5.878906 L 15.984375 5.671875 C 15.941406 5.546875 15.886719 5.425781 15.824219 5.308594 L 14.710938 3.226562 C 14.644531 3.101562 14.566406 2.984375 14.480469 2.875 L 14.703125 2.75 C 14.792969 2.699219 14.894531 2.671875 14.996094 2.671875 L 15.511719 2.671875 C 15.777344 2.671875 16.03125 2.730469 16.265625 2.84375 C 16.4375 2.929688 16.648438 2.855469 16.734375 2.683594 C 16.820312 2.507812 16.746094 2.296875 16.574219 2.210938 C 16.242188 2.050781 15.882812 1.96875 15.511719 1.96875 L 14.996094 1.96875 C 14.769531 1.96875 14.546875 2.027344 14.351562 2.140625 L 13.945312 2.375 C 13.554688 2.113281 13.09375 1.96875 12.609375 1.96875 L 11.378906 1.96875 C 10.894531 1.96875 10.433594 2.113281 10.042969 2.375 L 9.636719 2.140625 C 9.441406 2.027344 9.21875 1.96875 8.992188 1.96875 L 8.476562 1.96875 C 7.210938 1.96875 6.152344 2.957031 6.0625 4.21875 L 5.996094 5.230469 C 5.945312 5.945312 6.464844 6.558594 7.171875 6.632812 C 7.214844 6.636719 7.261719 6.640625 7.3125 6.640625 C 7.496094 6.640625 7.679688 6.601562 7.847656 6.527344 C 7.847656 6.542969 7.847656 6.558594 7.847656 6.574219 L 7.847656 6.929688 C 7.847656 7.652344 8.144531 8.335938 8.652344 8.828125 C 8.285156 9.15625 7.996094 9.574219 7.824219 10.039062 C 7.742188 10.253906 7.6875 10.476562 7.660156 10.699219 C 7.238281 10.765625 6.835938 10.964844 6.542969 11.261719 C 5.964844 11.835938 5.742188 12.742188 5.957031 13.625 C 6.039062 13.976562 6.191406 14.324219 6.40625 14.65625 C 6.34375 14.671875 6.28125 14.691406 6.21875 14.707031 C 5.976562 14.28125 5.574219 13.964844 5.097656 13.851562 C 1.894531 13.097656 0.75 12.039062 0.75 11.304688 C 0.75 10.761719 1.328125 10.183594 2.371094 9.671875 C 3.496094 9.121094 5.09375 8.679688 6.988281 8.390625 C 7.179688 8.363281 7.3125 8.183594 7.28125 7.992188 C 7.253906 7.800781 7.074219 7.667969 6.882812 7.695312 C 4.46875 8.0625 0.121094 9.011719 0.0429688 11.445312 C 0.0429688 11.507812 0.0390625 11.578125 0.0390625 11.582031 C -0.0546875 14.761719 -0.0273438 15.082031 0.652344 18.109375 C 0.652344 18.117188 0.65625 18.128906 0.65625 18.140625 C 0.660156 18.140625 0.660156 18.144531 0.660156 18.148438 C 0.671875 18.203125 0.6875 18.261719 0.699219 18.320312 C 0.699219 18.328125 0.703125 18.332031 0.703125 18.339844 C 0.707031 18.351562 0.710938 18.367188 0.710938 18.378906 C 0.71875 18.402344 0.722656 18.425781 0.726562 18.449219 C 0.957031 19.464844 1.535156 20.378906 2.351562 21.03125 C 3.167969 21.679688 4.191406 22.035156 5.234375 22.035156 L 18.753906 22.035156 C 19.796875 22.035156 20.820312 21.679688 21.636719 21.03125 C 22.699219 20.183594 23.085938 19.222656 23.324219 18.160156 C 23.328125 18.15625 23.339844 18.105469 23.335938 18.109375 C 24.007812 15.121094 24.0625 14.769531 23.9375 11.296875 Z M 9.464844 15.195312 C 9.871094 15.195312 10.230469 15.429688 10.40625 15.773438 L 10.40625 15.902344 L 8.46875 15.902344 C 8.617188 15.488281 9.015625 15.195312 9.464844 15.195312 Z M 11.191406 15.902344 C 11.171875 15.804688 11.144531 15.714844 11.109375 15.625 L 11.109375 13.277344 C 11.117188 12.796875 11.511719 12.410156 11.996094 12.410156 C 12.476562 12.410156 12.871094 12.796875 12.878906 13.277344 L 12.878906 15.625 C 12.84375 15.714844 12.816406 15.804688 12.796875 15.902344 Z M 13.582031 15.773438 C 13.757812 15.429688 14.117188 15.195312 14.523438 15.195312 C 14.972656 15.195312 15.371094 15.488281 15.519531 15.902344 L 13.582031 15.902344 Z M 15.328125 14.691406 L 16.199219 12.070312 C 16.269531 11.855469 16.316406 11.640625 16.339844 11.417969 C 16.570312 11.476562 16.785156 11.589844 16.949219 11.753906 C 17.347656 12.15625 17.503906 12.824219 17.351562 13.460938 C 17.175781 14.179688 16.675781 14.738281 16.285156 15.082031 C 16.195312 15.160156 16.105469 15.234375 16.003906 15.3125 C 15.839844 15.050781 15.601562 14.835938 15.328125 14.691406 Z M 17.035156 10.582031 C 17.171875 10.332031 17.277344 10.089844 17.359375 9.851562 C 17.433594 10.289062 17.421875 10.734375 17.332031 11.152344 C 17.191406 11.035156 17.035156 10.9375 16.867188 10.863281 C 16.925781 10.769531 16.980469 10.679688 17.035156 10.582031 Z M 13.3125 9.660156 C 13.234375 9.660156 13.160156 9.652344 13.085938 9.632812 C 13.074219 9.632812 13.066406 9.628906 13.054688 9.628906 C 12.714844 9.539062 12.4375 9.285156 12.328125 8.9375 C 12.28125 8.792969 12.148438 8.691406 11.996094 8.691406 C 11.839844 8.691406 11.707031 8.792969 11.660156 8.9375 C 11.550781 9.285156 11.273438 9.539062 10.933594 9.628906 C 10.921875 9.628906 10.914062 9.632812 10.902344 9.632812 C 10.828125 9.652344 10.753906 9.660156 10.675781 9.660156 C 10.179688 9.660156 9.761719 9.308594 9.664062 8.839844 C 9.664062 8.832031 9.664062 8.824219 9.660156 8.820312 C 9.65625 8.796875 9.652344 8.773438 9.652344 8.75 C 9.652344 8.746094 9.652344 8.742188 9.648438 8.738281 C 9.644531 8.703125 9.644531 8.664062 9.644531 8.628906 C 9.644531 8.058594 10.105469 7.597656 10.675781 7.597656 L 10.773438 7.597656 C 10.996094 8.078125 11.460938 8.410156 11.996094 8.410156 C 12.53125 8.410156 12.992188 8.078125 13.214844 7.597656 L 13.3125 7.597656 C 13.882812 7.597656 14.34375 8.058594 14.34375 8.628906 C 14.34375 8.664062 14.34375 8.703125 14.339844 8.738281 C 14.339844 8.742188 14.335938 8.746094 14.335938 8.75 C 14.335938 8.773438 14.332031 8.796875 14.328125 8.820312 C 14.324219 8.824219 14.324219 8.832031 14.324219 8.839844 C 14.226562 9.308594 13.808594 9.660156 13.3125 9.660156 Z M 12.394531 10.101562 C 12.277344 10.171875 12.136719 10.210938 11.996094 10.210938 C 11.851562 10.210938 11.710938 10.171875 11.59375 10.101562 C 11.742188 10.007812 11.878906 9.890625 11.996094 9.753906 C 12.109375 9.890625 12.246094 10.007812 12.394531 10.101562 Z M 11.339844 7 C 11.410156 6.945312 11.640625 6.863281 11.996094 6.863281 C 12.347656 6.863281 12.578125 6.945312 12.648438 7 C 12.644531 7.050781 12.636719 7.101562 12.625 7.152344 C 12.625 7.160156 12.625 7.164062 12.621094 7.171875 C 12.542969 7.480469 12.292969 7.707031 11.996094 7.707031 C 11.695312 7.707031 11.445312 7.480469 11.367188 7.171875 C 11.363281 7.164062 11.363281 7.160156 11.363281 7.152344 C 11.351562 7.101562 11.34375 7.050781 11.339844 7 Z M 7.578125 5.878906 C 7.496094 5.917969 7.402344 5.9375 7.3125 5.9375 C 7.289062 5.9375 7.265625 5.9375 7.246094 5.933594 C 6.914062 5.902344 6.671875 5.613281 6.695312 5.277344 L 6.765625 4.265625 C 6.828125 3.371094 7.578125 2.671875 8.476562 2.671875 L 8.992188 2.671875 C 9.09375 2.671875 9.195312 2.699219 9.285156 2.75 L 9.507812 2.875 C 9.421875 2.984375 9.34375 3.101562 9.277344 3.226562 L 8.164062 5.308594 C 8.101562 5.425781 8.046875 5.546875 8.003906 5.671875 Z M 8.550781 6.929688 L 8.550781 6.574219 C 8.550781 6.246094 8.628906 5.925781 8.785156 5.640625 L 9.894531 3.558594 C 9.996094 3.371094 10.128906 3.210938 10.285156 3.074219 C 10.292969 3.070312 10.300781 3.0625 10.308594 3.054688 C 10.605469 2.808594 10.980469 2.671875 11.378906 2.671875 L 12.609375 2.671875 C 13.007812 2.671875 13.382812 2.808594 13.679688 3.054688 C 13.6875 3.0625 13.695312 3.070312 13.703125 3.074219 C 13.859375 3.210938 13.992188 3.371094 14.09375 3.558594 L 15.203125 5.640625 C 15.359375 5.925781 15.4375 6.246094 15.4375 6.574219 L 15.4375 6.929688 C 15.4375 7.390625 15.273438 7.828125 14.984375 8.171875 C 14.789062 7.445312 14.128906 6.910156 13.347656 6.894531 C 13.296875 6.445312 12.777344 6.160156 11.996094 6.160156 C 11.210938 6.160156 10.691406 6.445312 10.640625 6.894531 C 9.859375 6.910156 9.199219 7.445312 9.003906 8.171875 C 8.714844 7.828125 8.550781 7.390625 8.550781 6.929688 Z M 9.105469 9.363281 C 9.382812 9.953125 9.984375 10.363281 10.675781 10.363281 C 10.730469 10.363281 10.78125 10.359375 10.832031 10.355469 C 11.113281 10.703125 11.539062 10.914062 11.996094 10.914062 C 12.449219 10.914062 12.875 10.703125 13.15625 10.355469 C 13.207031 10.359375 13.261719 10.363281 13.3125 10.363281 C 14.003906 10.363281 14.605469 9.953125 14.882812 9.363281 C 15.554688 9.980469 15.828125 10.957031 15.535156 11.847656 L 14.652344 14.5 C 14.609375 14.496094 14.566406 14.492188 14.523438 14.492188 C 14.179688 14.492188 13.855469 14.59375 13.582031 14.769531 L 13.582031 13.292969 C 13.582031 13.289062 13.582031 13.28125 13.582031 13.273438 L 13.582031 11.507812 C 13.582031 11.3125 13.425781 11.15625 13.230469 11.15625 C 13.035156 11.15625 12.878906 11.3125 12.878906 11.507812 L 12.878906 11.976562 C 12.625 11.804688 12.320312 11.707031 11.996094 11.707031 C 11.667969 11.707031 11.363281 11.804688 11.109375 11.976562 L 11.109375 11.507812 C 11.109375 11.3125 10.953125 11.15625 10.757812 11.15625 C 10.566406 11.15625 10.40625 11.3125 10.40625 11.507812 L 10.40625 13.273438 C 10.40625 13.28125 10.40625 13.289062 10.40625 13.292969 L 10.40625 14.769531 C 10.132812 14.59375 9.808594 14.492188 9.464844 14.492188 C 9.421875 14.492188 9.378906 14.496094 9.335938 14.5 L 8.453125 11.847656 C 8.160156 10.957031 8.433594 9.980469 9.105469 9.363281 Z M 7.039062 11.753906 C 7.203125 11.589844 7.417969 11.472656 7.648438 11.417969 C 7.671875 11.636719 7.71875 11.855469 7.789062 12.070312 L 8.660156 14.691406 C 8.386719 14.835938 8.148438 15.050781 7.984375 15.3125 C 7.882812 15.234375 7.792969 15.160156 7.703125 15.082031 C 7.3125 14.738281 6.8125 14.179688 6.636719 13.460938 C 6.484375 12.824219 6.640625 12.15625 7.039062 11.753906 Z M 7.242188 15.609375 C 7.390625 15.742188 7.550781 15.867188 7.726562 15.996094 C 7.726562 15.996094 7.726562 16 7.726562 16 C 7.703125 16.152344 7.75 16.304688 7.851562 16.417969 C 7.953125 16.535156 8.097656 16.601562 8.253906 16.601562 L 10.679688 16.601562 C 10.695312 16.601562 10.710938 16.601562 10.722656 16.601562 C 10.734375 16.601562 10.746094 16.601562 10.757812 16.601562 L 13.230469 16.601562 C 13.242188 16.601562 13.253906 16.601562 13.265625 16.601562 C 13.277344 16.601562 13.292969 16.601562 13.308594 16.601562 L 15.734375 16.601562 C 15.890625 16.601562 16.035156 16.535156 16.136719 16.417969 C 16.238281 16.304688 16.285156 16.152344 16.261719 16 C 16.261719 16 16.261719 15.996094 16.261719 15.996094 C 16.4375 15.867188 16.597656 15.742188 16.746094 15.609375 C 16.875 15.5 16.992188 15.382812 17.101562 15.265625 C 17.25 15.296875 17.394531 15.332031 17.539062 15.371094 L 17.164062 17.089844 C 17.050781 17.597656 16.628906 17.957031 16.136719 17.957031 L 7.851562 17.957031 C 7.359375 17.957031 6.9375 17.597656 6.828125 17.089844 L 6.449219 15.371094 C 6.59375 15.332031 6.738281 15.296875 6.886719 15.265625 C 6.996094 15.382812 7.113281 15.5 7.242188 15.609375 Z M 18.753906 21.332031 L 5.234375 21.332031 C 3.992188 21.332031 2.796875 20.742188 2.050781 19.707031 C 2.867188 20.285156 3.867188 20.609375 4.921875 20.609375 L 6.117188 20.609375 C 6.3125 20.609375 6.46875 20.453125 6.46875 20.257812 C 6.46875 20.066406 6.3125 19.90625 6.117188 19.90625 L 4.921875 19.90625 C 3.421875 19.90625 2.050781 19.140625 1.324219 17.902344 C 0.675781 15.011719 0.683594 14.761719 0.71875 12.675781 C 1.492188 13.425781 2.925781 14.0625 4.9375 14.535156 C 5.328125 14.628906 5.640625 14.957031 5.734375 15.375 L 6.140625 17.238281 C 6.324219 18.074219 7.027344 18.65625 7.851562 18.65625 L 16.136719 18.65625 C 16.960938 18.65625 17.664062 18.074219 17.847656 17.238281 L 18.253906 15.375 C 18.347656 14.957031 18.660156 14.628906 19.050781 14.535156 C 21.0625 14.0625 22.496094 13.425781 23.269531 12.675781 C 23.273438 12.867188 23.277344 13.070312 23.277344 13.269531 L 23.277344 13.273438 C 23.277344 13.285156 23.277344 13.292969 23.277344 13.304688 L 23.277344 13.3125 C 23.277344 13.328125 23.277344 13.347656 23.277344 13.363281 L 23.277344 13.378906 C 23.285156 15.019531 23.253906 15.269531 22.664062 17.902344 C 21.9375 19.140625 20.5625 19.90625 19.066406 19.90625 L 7.523438 19.90625 C 7.328125 19.90625 7.171875 20.066406 7.171875 20.257812 C 7.171875 20.453125 7.328125 20.609375 7.523438 20.609375 L 19.066406 20.609375 C 20.121094 20.609375 21.121094 20.285156 21.9375 19.707031 C 21.863281 19.792969 21.664062 20.109375 21.199219 20.480469 C 20.507812 21.03125 19.640625 21.332031 18.753906 21.332031 Z M 18.753906 21.332031 "/>
<path style=" stroke:none;fill-rule:nonzero;fill:rgb(0%,0%,0%);fill-opacity:1;" d="M 10.410156 6.367188 C 10.601562 6.367188 10.757812 6.210938 10.757812 6.015625 L 10.757812 5.847656 C 10.757812 5.652344 10.601562 5.496094 10.410156 5.496094 C 10.214844 5.496094 10.058594 5.652344 10.058594 5.847656 L 10.058594 6.015625 C 10.058594 6.210938 10.214844 6.367188 10.410156 6.367188 Z M 10.410156 6.367188 "/>
<path style=" stroke:none;fill-rule:nonzero;fill:rgb(0%,0%,0%);fill-opacity:1;" d="M 13.578125 6.367188 C 13.773438 6.367188 13.929688 6.210938 13.929688 6.015625 L 13.929688 5.847656 C 13.929688 5.652344 13.773438 5.496094 13.578125 5.496094 C 13.386719 5.496094 13.230469 5.652344 13.230469 5.847656 L 13.230469 6.015625 C 13.230469 6.210938 13.386719 6.367188 13.578125 6.367188 Z M 13.578125 6.367188 "/>
</g>
</svg>
