<svg xmlns="http://www.w3.org/2000/svg" xmlns:xlink="http://www.w3.org/1999/xlink" width="512" height="512">
  <linearGradient id="a" gradientUnits="userSpaceOnUse" x1="174.7" x2="174.7" y1="30" y2="438.1">
    <stop offset="0" stop-color="#00efd1"/>
    <stop offset="1" stop-color="#00acea"/>
  </linearGradient>
  <linearGradient id="b" x1="372.8" x2="372.8" xlink:href="#a" y1="30" y2="438.1"/>
  <linearGradient id="c" x1="256" x2="256" xlink:href="#a" y1="30" y2="438.1"/>
  <path d="M175 381a47 47 0 1046 46 47 47 0 00-46-46zm0 73a27 27 0 1126-27 27 27 0 01-26 27z" fill="url(#a)"/>
  <path d="M373 381a47 47 0 1046 46 47 47 0 00-46-46zm0 73a27 27 0 1126-27 27 27 0 01-26 27z" fill="url(#b)"/>
  <path d="M470 103l-340-5-9-28a47 47 0 00-44-32H42a10 10 0 100 20h35a27 27 0 0125 18l12 36 54 164-5 12a46 46 0 0043 64h203a10 10 0 000-20H206a26 26 0 01-24-36l4-10 219-22a57 57 0 0050-44l25-104a10 10 0 00-10-13zm-35 113a37 37 0 01-32 28l-217 22-49-148 321 5z" fill="url(#c)"/>
</svg>
