<svg xmlns="http://www.w3.org/2000/svg" width="64" height="64" viewBox="0 0 48 48">
  <path d="M17.6 27.7a36.8 36.8 0 01-14.4-3.6 4.7 4.7 0 01-2.4-4.2v-9.5c1.8 1.4 3.8 2.5 6 3.2 3.4 1.1 7 1.8 10.6 2-.4.6-.6 1.3-.6 2v8c0 .8.3 1.6.8 2.1zm0 0M47.2 10.4v9.5c0 1.8-1 3.3-2.4 4.2-3.7 2-8.8 3.2-14.4 3.6.5-.5.8-1.3.8-2.1v-8c0-.7-.2-1.4-.6-2 3.6-.2 7.2-.9 10.6-2 2.2-.7 4.2-1.8 6-3.2zm0 0" fill="#9d27b0"/>
  <path d="M44.8 12v8c0 1.7-1 3.2-2.4 4a33.5 33.5 0 01-11.8 3.5l-.2.2c5.6-.4 10.7-1.6 14.4-3.6a4.7 4.7 0 002.4-4.2v-9.5a16 16 0 01-2.4 1.6zm0 0" fill="#6a1b9a"/>
  <path d="M47.2 10.4a19.3 19.3 0 01-6 3.2A53.7 53.7 0 0024 11.2c-6.4 0-12.5.7-17.2 2.4-2.2-.7-4.2-1.8-6-3.2a8 8 0 015-7.4A52 52 0 0124 .8 52 52 0 0142.2 3a8 8 0 015 7.4zm0 0" fill="#673ab7"/>
  <path d="M42.2 3A52 52 0 0024 .8h-1.2a49 49 0 0117 2.2 8 8 0 015 7.4 18.3 18.3 0 01-4.9 2.8l1.3.4c2.2-.7 4.2-1.8 6-3.2a8 8 0 00-5-7.4zm0 0" fill="#4527a0"/>
  <path d="M41 6.8l-.3-.1A50 50 0 0024 4.8 50 50 0 007.3 6.7c-.4.2-1 0-1-.4-.2-.5 0-1 .4-1C11.4 3.2 18 3.1 24 3.1c6 0 12.6.2 17.3 2 .4.2.6.5.5 1 0 .3-.4.6-.8.6zm0 0" fill="#4527a0"/>
  <path d="M31.2 17.6v8c0 .8-.3 1.6-.8 2.1-.6.7-1.5 1.1-2.4 1.1h-8c-1 0-1.8-.4-2.4-1-.5-.6-.8-1.4-.8-2.2v-8c0-.7.2-1.4.6-2 .6-.7 1.6-1.2 2.6-1.2h8c1 0 2 .5 2.6 1.3.4.5.6 1.2.6 1.9zm0 0" fill="#ffdc00"/>
  <path d="M30.6 15.7a3.2 3.2 0 00-2.6-1.3h-2.4a3.2 3.2 0 013.2 3.2v8c0 .8-.3 1.6-.8 2.1-.6.7-1.5 1.1-2.4 1.1H28c1 0 1.8-.4 2.4-1 .5-.6.8-1.4.8-2.2v-8c0-.7-.2-1.4-.6-2zm0 0" fill="#fec108"/>
  <path d="M20.8 17.6h6.4c.4 0 .8.4.8.8v6.4c0 .4-.4.8-.8.8h-6.4a.8.8 0 01-.8-.8v-6.4c0-.4.4-.8.8-.8zm0 0" fill="#9d27b0"/>
  <path d="M27.2 17.6h-2.4c.4 0 .8.4.8.8v6.4c0 .4-.4.8-.8.8h2.4c.4 0 .8-.4.8-.8v-6.4c0-.4-.4-.8-.8-.8zm0 0" fill="#6a1b9a"/>
  <path d="M31.2 40a7.2 7.2 0 11-14.4 0 7.2 7.2 0 0114.4 0zm0 0" fill="#ffdc00"/>
  <path d="M24 32.8l-1.2.1a7.2 7.2 0 010 14.2A7.2 7.2 0 1024 32.8zm0 0" fill="#fec108"/>
  <path d="M27.2 40h-6.4a.8.8 0 010-1.6h6.4a.8.8 0 010 1.6zm0 0M25.6 43.2h-3.2a.8.8 0 01-.8-.8c0-.4.4-.8.8-.8h3.2c.4 0 .8.4.8.8s-.4.8-.8.8zm0 0" fill="#ff9801"/>
  <path d="M2.9 24.8c3.5 2 8.3 3.2 14.4 3.7a4 4 0 002.7 1.1h3.2V32a8 8 0 101.6 0v-2.4H28c1 0 2-.4 2.7-1.1 6-.5 11-1.8 14.4-3.7 1.8-1 2.9-2.9 2.9-4.9v-9.5c0-3.6-2.2-6.8-5.5-8.2C37.3.2 30.2 0 24 0 17.8 0 10.7.2 5.5 2.2A8.7 8.7 0 000 10.4v9.5c0 2 1 3.9 2.9 4.9zM30.4 40a6.4 6.4 0 11-7.2-6.3v1.5a.8.8 0 001.6 0v-1.5c3.2.4 5.6 3 5.6 6.3zM28 13.6h-8a4 4 0 00-2.9 1.2c-2.5-.2-5-.6-7.5-1.2C14.3 12.5 19 11.9 24 12c4.9 0 9.7.5 14.4 1.6-2.4.6-5 1-7.5 1.2a4 4 0 00-2.9-1.2zM28 28h-3.2v-1.6h2.4c.9 0 1.6-.7 1.6-1.6v-6.4c0-.9-.7-1.6-1.6-1.6h-6.4c-.9 0-1.6.7-1.6 1.6v6.4c0 .9.7 1.6 1.6 1.6h2.4V28H20c-1.3 0-2.4-1-2.4-2.4v-8c0-1.3 1-2.4 2.4-2.4h8c1.3 0 2.4 1 2.4 2.4v8c0 1.3-1 2.4-2.4 2.4zm-4-4c-.4 0-.8.4-.8.8h-2.4v-6.4h6.4v6.4h-2.4c0-.4-.4-.8-.8-.8zm22.4-4a4 4 0 01-2 3.4 33.8 33.8 0 01-12.6 3.4l.2-1.2v-1a37 37 0 0012.4-3.1c.3-.2.5-.7.3-1.1a.8.8 0 00-1-.4A35.2 35.2 0 0132 23v-5.4c0-.4 0-.8-.2-1.2 3.3-.3 6.5-1 9.7-2 1.7-.6 3.4-1.4 4.9-2.4zM6.1 3.6c5-2 11.8-2.1 17.9-2.1 6 0 13 .2 18 2.1 2.5 1 4.2 3.5 4.4 6.3-1.6 1.2-3.3 2.1-5.2 2.7A55.2 55.2 0 0024 10.4c-6.8 0-12.7.8-17.2 2.3-1.9-.6-3.6-1.5-5.2-2.7a7.2 7.2 0 014.5-6.3zM1.6 12c1.5 1 3.2 1.8 5 2.3 3 1 6.3 1.8 9.6 2l-.2 1.3V23c-4-.3-8-1.3-11.6-3a.8.8 0 10-.7 1.4c3.9 1.8 8 2.9 12.3 3.2v1c0 .4 0 .8.2 1.2-5.2-.6-9.5-1.7-12.6-3.4a4 4 0 01-2-3.5zm0 0"/>
</svg>
