<svg xmlns="http://www.w3.org/2000/svg" viewBox="0 0 512 512">
  <path d="M217 353c-7-8-17-13-29-16l-41-10v-25H97v25l-41 10c-27 6-46 30-46 58v67h91l116-109z" fill="#78d2fa"/>
  <path fill="#ffb487" d="M148 302v26l-26 62-26-62v-26z"/>
  <path d="M178 215v35a56 56 0 01-112 0v-35h112z" fill="#ffcdac"/>
  <path d="M178 226v-13a56 56 0 00-112 0v13h39c24 0 47-6 68-19" fill="#878791"/>
  <path d="M295 353c7-8 17-13 29-16l41-10v-25h50v25l41 10c27 6 46 30 46 58v67h-91L295 353z" fill="#a5dc69"/>
  <path d="M221 352l-57 14c-38 9-64 42-64 81v55h312v-55c0-38-27-72-64-81l-57-13-70-1z" fill="#ff5a5a"/>
  <g fill="#ffb487">
    <path d="M416 302v26l-26 62-26-62v-26zM256 433l37-85c-2-5-4-10-4-16v-8h-66v8c0 6-2 11-4 16l37 85z"/>
  </g>
  <path d="M334 192v53a78 78 0 11-156 0v-53h156z" fill="#ffcdac"/>
  <path d="M256 115c-43 0-78 35-78 78v19h38c25 0 50-11 66-30l52 30v-19c0-43-35-78-78-78z" fill="#f5b955"/>
  <path d="M334 215v35a56 56 0 00112 0v-35H334z" fill="#ffcdac"/>
  <path d="M334 226v-13a56 56 0 01112 0v13h-39c-24 0-47-6-68-19" fill="#878791"/>
  <path d="M256 492a10 10 0 00-10 10 10 10 0 0010 10 10 10 0 0010-10 10 10 0 00-10-10z"/>
  <path d="M459 327l-34-8v-13c19-12 31-32 31-56v-37a66 66 0 00-115-44 88 88 0 00-169 0 66 66 0 00-116 44v37c0 24 12 44 31 56v13l-34 8c-31 8-53 35-53 68v67c0 6 4 10 10 10h80v30c0 6 4 10 10 10h110a10 10 0 000-20h-45v-44a10 10 0 00-20 0v44h-35v-45c0-34 23-63 56-71l49-12 32 72c1 4 5 6 9 6s8-2 9-6l32-72 49 12c33 8 56 37 56 71v11a10 10 0 000 8v26h-35v-44a10 10 0 00-20 0v44h-49a10 10 0 000 20h114c5 0 10-4 10-10v-30h80c6 0 10-4 10-10v-67c0-33-22-60-53-68zm-54 1l-15 36-15-36a10 10 0 000-1v-13a66 66 0 0030 0v14zm-194 8c-6-4-13-7-20-9l-34-8v-13c8-5 15-12 21-21 7 15 19 27 33 36v15zm-23-91v-23h28c26 0 50-10 68-28l40 24v30a68 68 0 01-136-3zm113 76c14-8 26-21 33-36 6 9 13 16 21 21v13l-34 8c-7 2-14 5-20 9v-15zm89-25c-25 0-46-21-46-46v-2-26c20 9 41 14 63 14h29v14c0 25-21 46-46 46zm0-129c25 0 46 20 46 46v3h-29c-21 0-42-5-61-16 6-19 23-33 44-33zm-202 26a68 68 0 01136 0v2l-37-22c-4-3-10-2-13 2a76 76 0 01-58 27h-28v-9zM76 213a46 46 0 0190-13c-19 11-40 16-61 16H76v-3zm0 23h29c22 0 43-5 63-14v28a46 46 0 01-92 0v-14zm46 80l15-2v12a10 10 0 000 2l-15 36-15-36v-14l15 2zM90 447v5H60v-44a10 10 0 00-20 0v44H20v-57c0-23 16-43 38-48l32-8 20 50a93 93 0 00-20 58zm71-91l-17 6 10-23 32 7 7 3-32 7zm95 51l-25-57v-20a88 88 0 0050 0v20l-25 57zm63-58l7-3 32-7 10 23-18-6-31-7zm173 103h-20v-44a10 10 0 00-20 0v44h-30v-5c0-22-8-42-21-58l21-50 32 8c22 5 38 25 38 48v57z"/>
  <path d="M222 231a10 10 0 00-10 10c0 3 2 5 3 7s5 3 7 3a10 10 0 0010-10 10 10 0 00-10-10zM289 251a10 10 0 0010-10 10 10 0 00-17-7c-2 2-3 5-3 7s1 5 3 7 5 3 7 3zM275 268c-4-4-10-4-14 0-3 3-8 3-11 0a10 10 0 00-14 14 28 28 0 0039 0c4-4 4-10 0-14zM407 74h6a10 10 0 000-20h-6a10 10 0 000 20zM455 74h7a10 10 0 000-20h-7a10 10 0 000 20zM434 102c6 0 10-5 10-10v-7a10 10 0 00-20 0v7c0 5 5 10 10 10zM434 53c6 0 10-4 10-10v-7a10 10 0 00-20 0v7c0 6 5 10 10 10zM49 74h7a10 10 0 000-20h-7a10 10 0 000 20zM98 74h7a10 10 0 000-20h-7a10 10 0 000 20zM77 102c6 0 10-5 10-10v-7a10 10 0 00-20 0v7c0 5 5 10 10 10zM77 53c6 0 10-4 10-10v-7a10 10 0 00-20 0v7c0 6 5 10 10 10zM256 84c6 0 10-4 10-10V48a10 10 0 00-20 0v26c0 6 4 10 10 10zM256 20a10 10 0 0010-10 10 10 0 00-10-10 10 10 0 00-10 10c0 3 1 5 3 7s4 3 7 3zM207 54c2 2 4 3 7 3s5-1 7-3c4-4 4-10 0-14l-15-15a10 10 0 00-14 15l15 14zM298 57c2 0 5-1 7-3l15-15a10 10 0 00-14-14l-15 15a10 10 0 007 17z"/>
</svg>
