<svg xmlns="http://www.w3.org/2000/svg" width="32" height="32" viewBox="0 0 24 24">
  <path d="M23.6 11.3c0-2-5.2-3.62-11.6-3.62C5.59 7.68.4 9.3.4 11.3c0 0-.1 2.72 0 3.63.07.75.36 2.13.66 3.45a4.27 4.27 0 004.17 3.31h13.53a4.27 4.27 0 004.17-3.32c.3-1.32.59-2.7.67-3.45.1-.9 0-3.62 0-3.62zm0 0" fill="#40c6c2"/>
  <path d="M3.11 18.27a41.54 41.54 0 01-.61-3.55c-.09-.92 0-3.73 0-3.73 0-1.12 1.4-2.13 3.61-2.81-3.42.63-5.72 1.8-5.72 3.13 0 0-.1 2.71 0 3.61.08.76.37 2.14.67 3.46a4.27 4.27 0 004.17 3.31H6.9c-1.82 0-3.39-1.42-3.8-3.42zm0 0" fill="#1f9b92"/>
  <path d="M16.73 14.86a5.62 5.62 0 00-1.7.04c-.41.08-.83.05-1.23-.08a5.84 5.84 0 00-1.8-.28c-.66 0-1.27.1-1.8.28a2.42 2.42 0 01-1.24.08 5.63 5.63 0 00-1.7-.05c-2.13.27-3.72 1.62-3.55 3.02.17 1.4 2.02 2.07 4.17 2.07h8.23c2.15 0 4-.67 4.17-2.07.17-1.4-1.41-2.75-3.55-3.01zm0 0" fill="#bfc1c1"/>
  <path d="M17.66 9.55c-.06-.3-.48-.3-.56-.01-.09.3-.22.59-.37.88a3.38 3.38 0 01-1.59 1.46l.79 1.81a3.88 3.88 0 001.73-2.4 3.79 3.79 0 000-1.74zm0 0" fill="#ffaf5c"/>
  <path d="M17.2 11.5c-.51-.51-1.4-.65-2-.21l-1.17 4.96h1.19c.46-.27.9-.55 1.3-.9.55-.48 1-1.1 1.17-1.8a2.2 2.2 0 00-.49-2.04zm-10.41 0c.51-.51 1.41-.65 2-.21l1.18 4.96h-1.2c-.46-.27-.9-.55-1.3-.9-.55-.48-1-1.1-1.18-1.8-.17-.71-.02-1.53.5-2.04zm3.2-3.34h4v8.1h-4zm0 0" fill="#d67f3e"/>
  <path d="M10.76 16.25h2.47V13.3a1.24 1.24 0 10-2.47 0zm0 0" fill="#efeec5"/>
  <path d="M14.62 8.74l-1.39.68v6.83h1.21l1.43-4.3a2.7 2.7 0 00-1.25-3.2zm-5.25 0l1.39.68v6.83H9.55l-1.43-4.3a2.7 2.7 0 011.25-3.2zm0 0" fill="#ffaf5c"/>
  <path d="M9.46 14.85c-.7 0-1.29.52-1.39 1.2-.01.11.07.2.18.2h2.43c.11 0 .2-.09.18-.2a1.4 1.4 0 00-1.4-1.2zm5.06 0c-.7 0-1.29.52-1.39 1.2-.01.11.07.2.18.2h2.43c.1 0 .2-.09.18-.2a1.4 1.4 0 00-1.4-1.2zm0 0" fill="#ededed"/>
  <path d="M13.65 2.95l.88-.51A.93.93 0 0115 2.3h.52c1.08 0 1.98.84 2.06 1.93l.07 1.01a.97.97 0 01-1.39.94l-1.92-.92zm-3.3 0l-.89-.51A.95.95 0 009 2.3h-.52c-1.08 0-1.98.84-2.06 1.93l-.07 1.01a.97.97 0 001.39.94l1.91-.92zm0 0" fill="#d67f3e"/>
  <path d="M10.82 9.58l-1.27-.56a2.29 2.29 0 01-1.36-2.1v-.35c0-.39.1-.76.28-1.1L9.6 3.39a2.04 2.04 0 011.8-1.08h1.22c.75 0 1.44.42 1.8 1.08l1.11 2.08c.18.34.27.71.27 1.1v.36c0 .9-.52 1.72-1.35 2.09l-1.27.56a2.88 2.88 0 01-2.35 0zm0 0" fill="#ffaf5c"/>
  <path d="M13.13 9.43a1.13 1.13 0 01-2.27 0 1.14 1.14 0 112.27 0zm0 0" fill="#e573b7"/>
  <path d="M13.32 7.24h-2.64A1.38 1.38 0 1012 9.04a1.38 1.38 0 101.32-1.8zm0 0" fill="#efeec5"/>
  <path d="M13.32 7.24h-.83a1.39 1.39 0 01.41 2.7 1.38 1.38 0 10.42-2.7zm0 0" fill="#c9c793"/>
  <path d="M13 6.96c0 .6-.45 1.1-1 1.1-.56 0-1.01-.5-1.01-1.1 0-.6 2.01-.6 2.01 0zm0 0" fill="#5b586d"/>
  <path d="M23.6 11.3c0 1.18-1.82 2.23-4.62 2.9-.53.12-.94.55-1.06 1.1l-.4 1.87a1.42 1.42 0 01-1.38 1.14H7.85c-.66 0-1.22-.47-1.37-1.14l-.4-1.87A1.45 1.45 0 005 14.2C2.21 13.54.4 12.48.4 11.3c0 0-.1 2.72 0 3.63.08.75.37 2.13.67 3.45a4.27 4.27 0 004.17 3.31h13.53a4.27 4.27 0 004.16-3.32c.3-1.32.6-2.7.68-3.45.09-.9 0-3.62 0-3.62zm0 0" fill="#7393d8"/>
  <path d="M23.6 11.3c0 .74-.7 1.42-1.9 2 0 .63 0 1.27-.04 1.63-.08.75-.34 2.13-.62 3.45a4 4 0 01-3.82 3.31h1.54a4.27 4.27 0 004.17-3.32c.3-1.32.59-2.7.67-3.45.1-.9 0-3.62 0-3.62zm0 0" fill="#3d6fb7"/>
  <path d="M19.07 20.27H4.92a4.5 4.5 0 01-3.93-2.23l.07.33a4.27 4.27 0 004.17 3.32h13.53a4.27 4.27 0 004.17-3.32l.07-.34a4.5 4.5 0 01-3.93 2.23zm0 0" fill="#ffaf5c"/>
  <path d="M23 18.04a4.45 4.45 0 01-2.73 2.07 3.8 3.8 0 01-3.05 1.58h1.54c1.87 0 3.69-1.2 4.2-3.48a2.32 2.32 0 01.04-.17zm0 0" fill="#d67f3e"/>
  <path d="M23.94 11.3c0-1.6-2.53-2.94-6.74-3.59a.35.35 0 00-.11.7c4.25.65 6.15 1.93 6.15 2.9 0 .73-1.15 1.79-4.35 2.54a1.77 1.77 0 00-1.12.86l-.19-.05c.22-.34.37-.68.45-1.04a2.63 2.63 0 00-.17-1.78A4.28 4.28 0 0018 9.47a.64.64 0 00-.61-.5.63.63 0 00-.64.47 3.95 3.95 0 01-.34.81l-.12.21a3.05 3.05 0 00-.95-1.63 2.65 2.65 0 00.8-1.9V6.53a1.33 1.33 0 00.67.1A1.31 1.31 0 0018 5.23l-.06-1.01a2.48 2.48 0 00-.17-.74.35.35 0 10-.65.27c.06.16.1.34.11.52l.07 1.01a.61.61 0 01-.55.65h-.06a.63.63 0 01-.27-.05l-.43-.2a2.5 2.5 0 00-.16-.37l-1.1-2.08a2.37 2.37 0 00-.24-.36l.22-.12a.6.6 0 01.3-.08h.51c.27 0 .52.06.76.17a.35.35 0 00.3-.63 2.43 2.43 0 00-1.06-.24H15c-.23 0-.45.06-.65.17l-.4.23a2.4 2.4 0 00-1.34-.4h-1.23c-.48 0-.95.14-1.34.4l-.4-.23a1.28 1.28 0 00-.65-.17h-.51a2.43 2.43 0 00-2.42 2.25L6 5.23A1.31 1.31 0 007.3 6.64c.19 0 .37-.04.54-.11v.4c0 .72.3 1.4.8 1.9a3.05 3.05 0 00-.99 1.87 2.03 2.03 0 00-1.12.56 2.5 2.5 0 00-.58 2.37c.08.35.23.7.45 1.03l-.2.05a1.77 1.77 0 00-1.11-.86C1.9 13.1.75 12.04.75 11.31c0-.55.58-1.13 1.62-1.64C3.5 9.12 5.1 8.68 7 8.4a.35.35 0 00-.1-.7C4.46 8.07.11 9.02.03 11.45v.14c-.1 3.18-.07 3.5.61 6.53v.03h.01l.04.18v.02a.14.14 0 01.01.04 4.63 4.63 0 001.64 2.65 4.65 4.65 0 002.88 1h13.52a4.65 4.65 0 002.89-1 4.65 4.65 0 001.7-2.92c.67-2.99.72-3.34.6-6.81zM9.46 15.2c.41 0 .77.23.94.57v.13H8.48c.15-.41.55-.7 1-.7zm1.73.7a1.62 1.62 0 00-.08-.27v-2.35a.89.89 0 011.77 0v2.35a1.6 1.6 0 00-.08.27zm2.4-.13c.17-.34.53-.57.93-.57.45 0 .85.29 1 .7h-1.94zm1.74-1.08l.87-2.62c.07-.21.12-.43.14-.65.23.06.44.17.6.33.4.4.56 1.07.41 1.71a3.3 3.3 0 01-1.07 1.62 6.3 6.3 0 01-.28.23 1.78 1.78 0 00-.67-.62zm1.7-4.1a4.71 4.71 0 00.33-.74c.07.44.06.88-.03 1.3a1.97 1.97 0 00-.46-.29l.16-.28zm-3.72-.93a.88.88 0 01-.22-.03h-.04a1.03 1.03 0 01-.72-.7.35.35 0 00-.33-.24.35.35 0 00-.34.25c-.11.35-.39.6-.73.69h-.03a1.03 1.03 0 01-1.24-.79v-.02-.07l-.01-.01v-.11c0-.57.45-1.03 1.02-1.03h.1c.23.48.69.81 1.23.81.53 0 1-.33 1.21-.81h.1c.57 0 1.03.46 1.03 1.03V8.75l-.01.07v.02c-.1.47-.52.82-1.02.82zm-.92.44a.78.78 0 01-.8 0 1.79 1.79 0 00.4-.35c.12.14.26.26.4.35zM11.34 7c.07-.06.3-.14.66-.14.35 0 .58.08.65.14l-.03.15v.02c-.08.31-.33.54-.62.54-.3 0-.55-.23-.63-.54v-.02a1.03 1.03 0 01-.03-.15zM7.58 5.88a.63.63 0 01-.27.06h-.06a.61.61 0 01-.55-.66l.07-1.01a1.72 1.72 0 011.7-1.6H9c.1 0 .2.03.3.08l.22.12a2.37 2.37 0 00-.23.36L8.16 5.3a2.5 2.5 0 00-.16.36zm.97 1.05v-.36c0-.32.08-.64.23-.93L9.9 3.56c.1-.19.23-.35.38-.49a1.67 1.67 0 011.1-.4h1.23a1.67 1.67 0 011.1.4c.15.14.28.3.38.49l1.11 2.08c.16.29.24.6.24.93v.36c0 .46-.17.9-.46 1.24a1.73 1.73 0 00-1.63-1.27c-.05-.45-.57-.74-1.35-.74-.79 0-1.3.28-1.36.73A1.73 1.73 0 009 8.18a1.93 1.93 0 01-.45-1.24zm.55 2.43a1.74 1.74 0 001.73 1 1.5 1.5 0 001.17.56c.45 0 .88-.22 1.16-.56a1.74 1.74 0 001.72-1c.68.62.95 1.6.66 2.49l-.89 2.65a1.43 1.43 0 00-.13 0c-.34 0-.66.1-.94.27v-3.26a.35.35 0 00-.35-.35.35.35 0 00-.35.35v.47a1.57 1.57 0 00-.88-.27c-.33 0-.64.1-.9.27v-.47a.35.35 0 00-.34-.35.35.35 0 00-.35.35v3.26a1.74 1.74 0 00-.94-.28l-.13.01-.89-2.65a2.38 2.38 0 01.66-2.49zm-2.06 2.4c.16-.17.38-.29.6-.34.03.22.08.43.15.65l.87 2.62a1.8 1.8 0 00-.68.62 5.93 5.93 0 01-.28-.23c-.39-.34-.89-.9-1.06-1.62-.16-.64 0-1.3.4-1.7zm.2 3.85c.15.13.31.26.49.39a.5.5 0 00.12.42.53.53 0 00.4.18h7.48c.16 0 .3-.07.4-.18a.5.5 0 00.13-.42c.18-.13.34-.26.49-.4a4.25 4.25 0 00.35-.33l.44.1-.38 1.72c-.1.5-.53.87-1.02.87H7.85c-.5 0-.91-.36-1.02-.87l-.38-1.72.44-.1c.1.11.22.23.35.34zm11.51 5.72H5.23a3.93 3.93 0 01-3.18-1.62 4.96 4.96 0 002.87.9h1.2a.35.35 0 00.35-.35.35.35 0 00-.35-.35h-1.2c-1.5 0-2.87-.77-3.6-2-.64-2.9-.64-3.15-.6-5.23.77.75 2.2 1.38 4.22 1.86a1.1 1.1 0 01.8.84l.4 1.86c.18.83.89 1.42 1.71 1.42h8.29c.82 0 1.52-.59 1.7-1.42l.41-1.86a1.1 1.1 0 01.8-.84c2.01-.48 3.45-1.11 4.22-1.86v.69c.02 1.65-.02 1.9-.6 4.53-.73 1.24-2.1 2-3.6 2H7.52a.35.35 0 00-.35.36.35.35 0 00.35.35h11.55a4.96 4.96 0 002.87-.9c-.08.08-.28.4-.74.77a3.93 3.93 0 01-2.45.85zm0 0"/>
  <path d="M10.41 6.37a.35.35 0 00.35-.35v-.17a.35.35 0 10-.7 0v.17a.35.35 0 00.35.35zm3.17 0a.35.35 0 00.35-.35v-.17a.35.35 0 10-.7 0v.17a.35.35 0 00.35.35zm0 0"/>
</svg>
