<svg viewBox="1 -8 511.999 511" xmlns="http://www.w3.org/2000/svg">
  <path d="M47.137 191.621v249.645c0 22.093 18.074 40.168 40.164 40.168h337.398c22.09 0 40.168-18.075 40.168-40.168V191.62zm0 0" fill="#d7e9fd"/>
  <path d="M256 191.621v289.813h168.7c22.09 0 40.167-18.075 40.167-40.168V191.62zm0 0" fill="#b4dafe"/>
  <path d="M464.867 176.621H47.137c-8.285 0-15 6.715-15 15v249.645c0 30.418 24.746 55.168 55.164 55.168h337.398c30.418 0 55.168-24.75 55.168-55.168V191.62c0-8.285-6.719-15-15-15zm-15 159.906h-99.719v-115.34c0-7.066-4.894-12.98-11.476-14.566h111.195zM62.137 441.266V206.62h269.492c-6.582 1.586-11.48 7.496-11.48 14.566v245.247H87.3c-13.875 0-25.164-11.29-25.164-25.168zm362.562 25.168h-74.55v-99.907h99.718v74.739c0 13.879-11.293 25.168-25.168 25.168zm0 0" fill="#7cc8f0"/>
  <path d="M464.867 176.621H256v30h75.629c-6.582 1.586-11.48 7.496-11.48 14.566v245.247H256v30h168.7c30.417 0 55.167-24.75 55.167-55.168V191.62c0-8.285-6.719-15-15-15zm-15 264.645c0 13.879-11.293 25.168-25.168 25.168h-74.55v-99.907h99.718zm0-104.739h-99.719v-115.34c0-7.066-4.894-12.98-11.476-14.566h111.195zm0 0" fill="#00abe9"/>
  <g fill="#005285">
    <path d="M191.145 325.09c-38.024 0-68.958 30.937-68.958 68.957a35.85 35.85 0 005.864 19.687c6.68 10.207 17.937 16.301 30.117 16.301 8.547 0 15.312-2.008 20.75-3.617 4.484-1.332 8.031-2.379 12.227-2.379 4.195 0 7.738 1.047 12.222 2.379 5.438 1.61 12.203 3.617 20.75 3.617 12.184 0 23.442-6.097 30.117-16.297a35.857 35.857 0 005.868-19.691c0-38.02-30.938-68.957-68.957-68.957zm0 0M137.59 320.07c-3.953 0-7.82-1.601-10.613-4.402a15.083 15.083 0 01-4.387-10.598c0-3.949 1.597-7.82 4.387-10.61a15.107 15.107 0 0110.613-4.39 15.11 15.11 0 0110.605 4.39 15.101 15.101 0 014.395 10.61c0 3.938-1.602 7.809-4.395 10.598a15.074 15.074 0 01-10.605 4.402zm0 0M172.578 301.5c-3.95 0-7.82-1.602-10.61-4.39-2.788-2.801-4.39-6.66-4.39-10.61 0-3.953 1.602-7.813 4.39-10.613 2.79-2.79 6.66-4.387 10.61-4.387s7.809 1.598 10.61 4.387c2.789 2.8 4.39 6.66 4.39 10.613 0 3.95-1.601 7.82-4.39 10.61-2.801 2.788-6.66 4.39-10.61 4.39zm0 0M209.707 301.5c-3.95 0-7.809-1.602-10.61-4.39-2.788-2.801-4.39-6.66-4.39-10.61 0-3.953 1.602-7.813 4.39-10.613 2.79-2.79 6.66-4.387 10.61-4.387s7.82 1.598 10.61 4.387c2.788 2.8 4.39 6.66 4.39 10.613 0 3.95-1.602 7.82-4.39 10.61a15.128 15.128 0 01-10.61 4.39zm0 0M244.695 320.07a15.08 15.08 0 01-10.605-4.402 15.074 15.074 0 01-4.395-10.598c0-3.949 1.602-7.82 4.395-10.61a15.102 15.102 0 0110.605-4.39 15.12 15.12 0 0110.614 4.39 15.11 15.11 0 014.386 10.61c0 3.95-1.597 7.809-4.386 10.598a15.078 15.078 0 01-10.614 4.402zm0 0"/>
  </g>
  <path d="M511.422 123.844L490.324 50C482.391 22.242 453.566.5 424.7.5H87.301C58.434.5 29.609 22.242 21.676 50L.578 123.844a15.021 15.021 0 00-.578 4.12v48.2c0 34.852 28.352 63.203 63.2 63.203 29.683 0 54.652-20.57 61.402-48.203h69.996c6.754 27.633 31.718 48.203 61.402 48.203s54.648-20.57 61.398-48.203h70c6.75 27.633 31.72 48.203 61.399 48.203 34.851 0 63.203-28.351 63.203-63.203v-48.2c0-1.39-.195-2.776-.578-4.12zm0 0" fill="#ff5b5b"/>
  <path d="M511.422 123.844H.578a15.021 15.021 0 00-.578 4.12v48.2c0 34.852 28.352 63.203 63.2 63.203 29.683 0 54.652-20.57 61.402-48.203h69.996c6.754 27.633 31.718 48.203 61.402 48.203s54.648-20.57 61.398-48.203h70c6.75 27.633 31.72 48.203 61.399 48.203 34.851 0 63.203-28.351 63.203-63.203v-48.2c0-1.39-.195-2.776-.578-4.12zm0 0" fill="#1fbf66"/>
  <path d="M511.422 123.844H.578a15.021 15.021 0 00-.578 4.12v48.2c0 34.852 28.352 63.203 63.2 63.203 29.683 0 54.652-20.57 61.402-48.203h69.996c6.754 27.633 31.718 48.203 61.402 48.203s54.648-20.57 61.398-48.203h70c6.75 27.633 31.72 48.203 61.399 48.203 34.851 0 63.203-28.351 63.203-63.203v-48.2c0-1.39-.195-2.776-.578-4.12zm0 0" fill="#ff3980"/>
  <path d="M511.422 123.844L490.324 50C482.391 22.242 453.566.5 424.7.5H256v238.867c29.684 0 54.648-20.57 61.398-48.203h70c6.75 27.633 31.72 48.203 61.399 48.203 34.851 0 63.203-28.351 63.203-63.203v-48.2c0-1.39-.195-2.776-.578-4.12zm0 0" fill="#ff3980"/>
  <path d="M511.422 123.844H256v115.523c29.684 0 54.648-20.57 61.398-48.203h70c6.75 27.633 31.72 48.203 61.399 48.203 34.851 0 63.203-28.351 63.203-63.203v-48.2c0-1.39-.195-2.776-.578-4.12zm0 0" fill="#dd226e"/>
  <path d="M96.398 123.844v52.32c0 34.852 28.356 63.203 63.2 63.203 34.851 0 63.203-28.351 63.203-63.203v-52.32zm0 0" fill="#fff"/>
  <path d="M289.2 123.844v52.32c0 34.852 28.35 63.203 63.198 63.203s63.2-28.351 63.2-63.203v-52.32zm0 0" fill="#d7e9fd"/>
</svg>
