<?xml version="1.0" encoding="UTF-8"?>
<svg xmlns="http://www.w3.org/2000/svg" xmlns:xlink="http://www.w3.org/1999/xlink" width="48pt" height="48pt" viewBox="0 0 48 48" version="1.1">
<g id="surface1">
<path style=" stroke:none;fill-rule:nonzero;fill:rgb(61.568627%,15.294118%,69.019608%);fill-opacity:1;" d="M 17.625 27.734375 C 11.984375 27.273438 6.929688 26.113281 3.238281 24.078125 C 1.730469 23.242188 0.796875 21.652344 0.800781 19.929688 L 0.800781 10.398438 C 2.589844 11.804688 4.613281 12.882812 6.777344 13.585938 C 10.230469 14.722656 13.8125 15.429688 17.441406 15.679688 C 17.023438 16.234375 16.800781 16.90625 16.800781 17.601562 L 16.800781 25.601562 C 16.800781 26.390625 17.09375 27.152344 17.625 27.734375 Z M 17.625 27.734375 "/>
<path style=" stroke:none;fill-rule:nonzero;fill:rgb(61.568627%,15.294118%,69.019608%);fill-opacity:1;" d="M 47.199219 10.398438 L 47.199219 19.929688 C 47.203125 21.652344 46.269531 23.242188 44.761719 24.078125 C 41.070312 26.113281 36.015625 27.273438 30.375 27.734375 C 30.90625 27.152344 31.199219 26.390625 31.199219 25.601562 L 31.199219 17.601562 C 31.199219 16.90625 30.976562 16.234375 30.558594 15.679688 C 34.1875 15.429688 37.769531 14.722656 41.222656 13.585938 C 43.386719 12.882812 45.410156 11.804688 47.199219 10.398438 Z M 47.199219 10.398438 "/>
<path style=" stroke:none;fill-rule:nonzero;fill:rgb(41.568627%,10.588235%,60.392157%);fill-opacity:1;" d="M 44.800781 12 L 44.800781 19.929688 C 44.804688 21.652344 43.867188 23.242188 42.359375 24.078125 C 39.253906 25.792969 35.167969 26.878906 30.585938 27.457031 C 30.519531 27.554688 30.449219 27.648438 30.375 27.734375 C 36.015625 27.273438 41.070312 26.113281 44.761719 24.078125 C 46.269531 23.242188 47.203125 21.652344 47.199219 19.929688 L 47.199219 10.398438 C 46.449219 11.003906 45.648438 11.539062 44.800781 12 Z M 44.800781 12 "/>
<path style=" stroke:none;fill-rule:nonzero;fill:rgb(40.392157%,22.745098%,71.764706%);fill-opacity:1;" d="M 47.199219 10.398438 C 45.410156 11.804688 43.386719 12.882812 41.222656 13.585938 C 36.480469 11.921875 30.433594 11.199219 24 11.199219 C 17.566406 11.199219 11.519531 11.921875 6.777344 13.585938 C 4.613281 12.882812 2.589844 11.804688 0.800781 10.398438 C 0.789062 7.136719 2.765625 4.199219 5.792969 2.984375 C 10.664062 1.046875 17.128906 0.800781 24 0.800781 C 30.871094 0.800781 37.335938 1.046875 42.207031 2.984375 C 45.234375 4.199219 47.210938 7.136719 47.199219 10.398438 Z M 47.199219 10.398438 "/>
<path style=" stroke:none;fill-rule:nonzero;fill:rgb(27.058824%,15.294118%,62.745098%);fill-opacity:1;" d="M 42.207031 2.984375 C 37.335938 1.046875 30.871094 0.800781 24 0.800781 C 23.601562 0.800781 23.199219 0.804688 22.800781 0.804688 C 29.21875 0.839844 35.222656 1.160156 39.808594 2.984375 C 42.835938 4.199219 44.8125 7.136719 44.800781 10.398438 C 43.320312 11.570312 41.667969 12.503906 39.90625 13.167969 C 40.351562 13.300781 40.796875 13.433594 41.222656 13.585938 C 43.386719 12.882812 45.410156 11.804688 47.199219 10.398438 C 47.210938 7.136719 45.234375 4.199219 42.207031 2.984375 Z M 42.207031 2.984375 "/>
<path style=" stroke:none;fill-rule:nonzero;fill:rgb(27.058824%,15.294118%,62.745098%);fill-opacity:1;" d="M 41.03125 6.757812 C 40.933594 6.757812 40.832031 6.738281 40.738281 6.703125 C 36.308594 4.945312 29.777344 4.800781 24 4.800781 C 18.222656 4.800781 11.691406 4.945312 7.261719 6.703125 C 6.851562 6.863281 6.386719 6.664062 6.222656 6.253906 C 6.0625 5.84375 6.261719 5.378906 6.671875 5.214844 C 11.359375 3.359375 18.078125 3.199219 24 3.199219 C 29.921875 3.199219 36.640625 3.359375 41.328125 5.214844 C 41.683594 5.355469 41.890625 5.730469 41.820312 6.109375 C 41.746094 6.484375 41.417969 6.757812 41.03125 6.757812 Z M 41.03125 6.757812 "/>
<path style=" stroke:none;fill-rule:nonzero;fill:rgb(100%,86.27451%,0%);fill-opacity:1;" d="M 31.199219 17.601562 L 31.199219 25.601562 C 31.199219 26.390625 30.90625 27.152344 30.375 27.734375 C 29.773438 28.417969 28.910156 28.804688 28 28.800781 L 20 28.800781 C 19.089844 28.804688 18.226562 28.417969 17.625 27.734375 C 17.09375 27.152344 16.800781 26.390625 16.800781 25.601562 L 16.800781 17.601562 C 16.800781 16.90625 17.023438 16.234375 17.441406 15.679688 L 17.449219 15.679688 C 18.046875 14.871094 18.996094 14.398438 20 14.398438 L 28 14.398438 C 29.003906 14.398438 29.953125 14.871094 30.550781 15.679688 L 30.558594 15.679688 C 30.976562 16.234375 31.199219 16.90625 31.199219 17.601562 Z M 31.199219 17.601562 "/>
<path style=" stroke:none;fill-rule:nonzero;fill:rgb(99.607843%,75.686275%,3.137255%);fill-opacity:1;" d="M 30.558594 15.679688 L 30.550781 15.679688 C 29.953125 14.871094 29.003906 14.398438 28 14.398438 L 25.601562 14.398438 C 26.605469 14.398438 27.550781 14.871094 28.152344 15.679688 L 28.160156 15.679688 C 28.574219 16.234375 28.800781 16.90625 28.800781 17.601562 L 28.800781 25.601562 C 28.800781 26.390625 28.503906 27.152344 27.976562 27.734375 C 27.375 28.417969 26.507812 28.804688 25.601562 28.800781 L 28 28.800781 C 28.910156 28.804688 29.773438 28.417969 30.375 27.734375 C 30.90625 27.152344 31.199219 26.390625 31.199219 25.601562 L 31.199219 17.601562 C 31.199219 16.90625 30.976562 16.234375 30.558594 15.679688 Z M 30.558594 15.679688 "/>
<path style=" stroke:none;fill-rule:nonzero;fill:rgb(61.568627%,15.294118%,69.019608%);fill-opacity:1;" d="M 20.800781 17.601562 L 27.199219 17.601562 C 27.640625 17.601562 28 17.957031 28 18.398438 L 28 24.800781 C 28 25.242188 27.640625 25.601562 27.199219 25.601562 L 20.800781 25.601562 C 20.359375 25.601562 20 25.242188 20 24.800781 L 20 18.398438 C 20 17.957031 20.359375 17.601562 20.800781 17.601562 Z M 20.800781 17.601562 "/>
<path style=" stroke:none;fill-rule:nonzero;fill:rgb(41.568627%,10.588235%,60.392157%);fill-opacity:1;" d="M 27.199219 17.601562 L 24.800781 17.601562 C 25.242188 17.601562 25.601562 17.957031 25.601562 18.398438 L 25.601562 24.800781 C 25.601562 25.242188 25.242188 25.601562 24.800781 25.601562 L 27.199219 25.601562 C 27.640625 25.601562 28 25.242188 28 24.800781 L 28 18.398438 C 28 17.957031 27.640625 17.601562 27.199219 17.601562 Z M 27.199219 17.601562 "/>
<path style=" stroke:none;fill-rule:nonzero;fill:rgb(100%,86.27451%,0%);fill-opacity:1;" d="M 31.199219 40 C 31.199219 43.976562 27.976562 47.199219 24 47.199219 C 20.023438 47.199219 16.800781 43.976562 16.800781 40 C 16.800781 36.023438 20.023438 32.800781 24 32.800781 C 27.976562 32.800781 31.199219 36.023438 31.199219 40 Z M 31.199219 40 "/>
<path style=" stroke:none;fill-rule:nonzero;fill:rgb(99.607843%,75.686275%,3.137255%);fill-opacity:1;" d="M 24 32.800781 C 23.597656 32.800781 23.195312 32.839844 22.800781 32.90625 C 26.265625 33.488281 28.800781 36.488281 28.800781 40 C 28.800781 43.511719 26.265625 46.511719 22.800781 47.09375 C 25.484375 47.5625 28.207031 46.476562 29.828125 44.285156 C 31.449219 42.09375 31.695312 39.171875 30.460938 36.742188 C 29.226562 34.308594 26.726562 32.785156 24 32.800781 Z M 24 32.800781 "/>
<path style=" stroke:none;fill-rule:nonzero;fill:rgb(100%,59.607843%,0.392157%);fill-opacity:1;" d="M 27.199219 40 L 20.800781 40 C 20.359375 40 20 39.640625 20 39.199219 C 20 38.757812 20.359375 38.398438 20.800781 38.398438 L 27.199219 38.398438 C 27.640625 38.398438 28 38.757812 28 39.199219 C 28 39.640625 27.640625 40 27.199219 40 Z M 27.199219 40 "/>
<path style=" stroke:none;fill-rule:nonzero;fill:rgb(100%,59.607843%,0.392157%);fill-opacity:1;" d="M 25.601562 43.199219 L 22.398438 43.199219 C 21.957031 43.199219 21.601562 42.84375 21.601562 42.398438 C 21.601562 41.957031 21.957031 41.601562 22.398438 41.601562 L 25.601562 41.601562 C 26.042969 41.601562 26.398438 41.957031 26.398438 42.398438 C 26.398438 42.84375 26.042969 43.199219 25.601562 43.199219 Z M 25.601562 43.199219 "/>
<path style=" stroke:none;fill-rule:nonzero;fill:rgb(0%,0%,0%);fill-opacity:1;" d="M 2.855469 24.78125 C 6.394531 26.730469 11.246094 27.980469 17.265625 28.503906 C 18.003906 29.207031 18.980469 29.597656 20 29.601562 L 23.199219 29.601562 L 23.199219 32.039062 C 18.957031 32.46875 15.796875 36.144531 16.011719 40.402344 C 16.222656 44.660156 19.738281 48 24 48 C 28.261719 48 31.777344 44.660156 31.988281 40.402344 C 32.203125 36.144531 29.042969 32.46875 24.800781 32.039062 L 24.800781 29.601562 L 28 29.601562 C 29.019531 29.597656 29.996094 29.207031 30.734375 28.503906 C 36.753906 27.980469 41.605469 26.730469 45.144531 24.78125 C 46.910156 23.804688 48.003906 21.945312 48 19.929688 L 48 10.398438 C 48.027344 6.808594 45.847656 3.566406 42.507812 2.238281 C 37.292969 0.171875 30.21875 0 24 0 C 17.78125 0 10.707031 0.171875 5.492188 2.238281 C 2.152344 3.566406 -0.0273438 6.808594 0 10.398438 L 0 19.929688 C -0.00390625 21.945312 1.089844 23.804688 2.855469 24.78125 Z M 30.398438 40 C 30.402344 43.429688 27.699219 46.253906 24.269531 46.398438 C 20.84375 46.542969 17.910156 43.960938 17.621094 40.539062 C 17.335938 37.121094 19.796875 34.085938 23.199219 33.65625 L 23.199219 35.199219 C 23.199219 35.640625 23.558594 36 24 36 C 24.441406 36 24.800781 35.640625 24.800781 35.199219 L 24.800781 33.65625 C 27.996094 34.0625 30.394531 36.777344 30.398438 40 Z M 28 13.601562 L 20 13.601562 C 18.90625 13.601562 17.863281 14.050781 17.113281 14.84375 C 14.570312 14.628906 12.046875 14.210938 9.566406 13.589844 C 14.292969 12.464844 19.140625 11.929688 24 12 C 28.859375 11.929688 33.707031 12.464844 38.433594 13.59375 C 35.957031 14.210938 33.433594 14.632812 30.890625 14.847656 C 30.136719 14.050781 29.09375 13.601562 28 13.601562 Z M 28 28 L 24.800781 28 L 24.800781 26.398438 L 27.199219 26.398438 C 28.082031 26.398438 28.800781 25.683594 28.800781 24.800781 L 28.800781 18.398438 C 28.800781 17.515625 28.082031 16.800781 27.199219 16.800781 L 20.800781 16.800781 C 19.917969 16.800781 19.199219 17.515625 19.199219 18.398438 L 19.199219 24.800781 C 19.199219 25.683594 19.917969 26.398438 20.800781 26.398438 L 23.199219 26.398438 L 23.199219 28 L 20 28 C 18.675781 28 17.601562 26.925781 17.601562 25.601562 L 17.601562 17.601562 C 17.601562 16.273438 18.675781 15.199219 20 15.199219 L 28 15.199219 C 29.324219 15.199219 30.398438 16.273438 30.398438 17.601562 L 30.398438 25.601562 C 30.398438 26.925781 29.324219 28 28 28 Z M 24 24 C 23.558594 24 23.199219 24.359375 23.199219 24.800781 L 20.800781 24.800781 L 20.800781 18.398438 L 27.199219 18.398438 L 27.199219 24.800781 L 24.800781 24.800781 C 24.800781 24.359375 24.441406 24 24 24 Z M 46.398438 19.929688 C 46.402344 21.363281 45.628906 22.683594 44.375 23.378906 C 41.265625 25.09375 37.03125 26.234375 31.796875 26.789062 C 31.925781 26.40625 31.996094 26.003906 32 25.601562 L 32 24.644531 C 36.269531 24.308594 40.453125 23.234375 44.355469 21.46875 C 44.746094 21.269531 44.90625 20.792969 44.710938 20.398438 C 44.515625 20.003906 44.039062 19.84375 43.644531 20.035156 C 39.964844 21.695312 36.023438 22.710938 32 23.035156 L 32 17.601562 C 31.996094 17.179688 31.921875 16.761719 31.785156 16.363281 C 35.085938 16.066406 38.339844 15.390625 41.484375 14.339844 C 43.214844 13.761719 44.867188 12.96875 46.398438 11.980469 Z M 6.078125 3.726562 C 11.035156 1.765625 17.929688 1.601562 24 1.601562 C 30.070312 1.601562 36.964844 1.765625 41.921875 3.726562 C 44.5 4.785156 46.234375 7.234375 46.375 10.019531 C 44.800781 11.191406 43.054688 12.109375 41.195312 12.738281 C 36.683594 11.210938 30.757812 10.398438 24 10.398438 C 17.242188 10.398438 11.316406 11.210938 6.804688 12.738281 C 4.949219 12.109375 3.199219 11.191406 1.628906 10.019531 C 1.769531 7.234375 3.503906 4.785156 6.078125 3.726562 Z M 1.601562 11.980469 C 3.132812 12.96875 4.78125 13.761719 6.507812 14.339844 C 9.65625 15.386719 12.914062 16.066406 16.21875 16.359375 C 16.078125 16.757812 16.003906 17.179688 16 17.601562 L 16 23.035156 C 11.984375 22.703125 8.054688 21.6875 4.378906 20.035156 C 4.121094 19.90625 3.816406 19.925781 3.578125 20.082031 C 3.339844 20.242188 3.203125 20.515625 3.222656 20.800781 C 3.242188 21.089844 3.410156 21.34375 3.667969 21.46875 C 7.566406 23.226562 11.738281 24.300781 16 24.640625 L 16 25.601562 C 16.003906 26.003906 16.074219 26.40625 16.203125 26.789062 C 10.96875 26.230469 6.734375 25.09375 3.625 23.378906 C 2.371094 22.683594 1.597656 21.363281 1.601562 19.929688 Z M 1.601562 11.980469 "/>
</g>
</svg>
