<svg viewBox="1 -8 511.999 511" xmlns="http://www.w3.org/2000/svg"><path d="m47.136719 191.621094v249.644531c0 22.09375 18.074219 40.167969 40.164062 40.167969h337.398438c22.089843 0 40.167969-18.074219 40.167969-40.167969v-249.644531zm0 0" fill="#d7e9fd"/><path d="m256 191.621094v289.8125h168.699219c22.089843 0 40.167969-18.074219 40.167969-40.167969v-249.644531zm0 0" fill="#b4dafe"/><path d="m464.867188 176.621094h-417.730469c-8.285157 0-15 6.714844-15 15v249.644531c0 30.417969 24.746093 55.167969 55.164062 55.167969h337.398438c30.417969 0 55.167969-24.75 55.167969-55.167969v-249.644531c0-8.285156-6.71875-15-15-15zm-15 159.90625h-99.71875v-115.339844c0-7.066406-4.894532-12.980469-11.476563-14.566406h111.195313zm-387.730469 104.738281v-234.644531h269.492187c-6.582031 1.585937-11.480468 7.496094-11.480468 14.566406v245.246094h-232.847657c-13.875 0-25.164062-11.289063-25.164062-25.167969zm362.5625 25.167969h-74.550781v-99.90625h99.71875v74.738281c0 13.878906-11.292969 25.167969-25.167969 25.167969zm0 0" fill="#7cc8f0"/><path d="m464.867188 176.621094h-208.867188v30h75.628906c-6.582031 1.585937-11.480468 7.496094-11.480468 14.566406v245.246094h-64.148438v30h168.699219c30.417969 0 55.167969-24.75 55.167969-55.167969v-249.644531c0-8.285156-6.71875-15-15-15zm-15 264.644531c0 13.878906-11.292969 25.167969-25.167969 25.167969h-74.550781v-99.90625h99.71875zm0-104.738281h-99.71875v-115.339844c0-7.066406-4.894532-12.980469-11.476563-14.566406h111.195313zm0 0" fill="#00abe9"/><g fill="#005285"><path d="m191.144531 325.089844c-38.023437 0-68.957031 30.9375-68.957031 68.957031 0 7.019531 2.027344 13.828125 5.863281 19.6875 6.679688 10.207031 17.9375 16.300781 30.117188 16.300781 8.546875 0 15.3125-2.007812 20.75-3.617187 4.484375-1.332031 8.03125-2.378907 12.226562-2.378907 4.195313 0 7.738281 1.046876 12.222657 2.378907 5.4375 1.609375 12.203124 3.617187 20.75 3.617187 12.183593 0 23.441406-6.097656 30.117187-16.296875 3.835937-5.859375 5.867187-12.667969 5.867187-19.691406 0-38.019531-30.9375-68.957031-68.957031-68.957031zm0 0"/><path d="m137.589844 320.070312c-3.953125 0-7.820313-1.601562-10.613282-4.402343-2.789062-2.789063-4.386718-6.648438-4.386718-10.597657 0-3.949218 1.597656-7.820312 4.386718-10.609374 2.792969-2.792969 6.660157-4.390626 10.613282-4.390626 3.945312 0 7.808594 1.597657 10.605468 4.390626 2.792969 2.789062 4.394532 6.660156 4.394532 10.609374 0 3.9375-1.601563 7.808594-4.394532 10.597657-2.789062 2.800781-6.660156 4.402343-10.605468 4.402343zm0 0"/><path d="m172.578125 301.5c-3.949219 0-7.820313-1.601562-10.609375-4.390625-2.789062-2.800781-4.390625-6.660156-4.390625-10.609375 0-3.953125 1.601563-7.8125 4.390625-10.613281 2.789062-2.789063 6.660156-4.386719 10.609375-4.386719s7.808594 1.597656 10.609375 4.386719c2.789062 2.800781 4.390625 6.660156 4.390625 10.613281 0 3.949219-1.601563 7.820312-4.390625 10.609375-2.800781 2.789063-6.660156 4.390625-10.609375 4.390625zm0 0"/><path d="m209.707031 301.5c-3.949219 0-7.808593-1.601562-10.609375-4.390625-2.789062-2.800781-4.390625-6.660156-4.390625-10.609375 0-3.953125 1.601563-7.8125 4.390625-10.613281 2.789063-2.789063 6.660156-4.386719 10.609375-4.386719s7.820313 1.597656 10.609375 4.386719c2.789063 2.800781 4.390625 6.660156 4.390625 10.613281 0 3.949219-1.601562 7.820312-4.390625 10.609375-2.796875 2.789063-6.660156 4.390625-10.609375 4.390625zm0 0"/><path d="m244.695312 320.070312c-3.949218 0-7.808593-1.601562-10.605468-4.402343-2.792969-2.789063-4.394532-6.648438-4.394532-10.597657 0-3.949218 1.601563-7.820312 4.394532-10.609374 2.796875-2.792969 6.65625-4.390626 10.605468-4.390626 3.953126 0 7.8125 1.597657 10.613282 4.390626 2.789062 2.789062 4.386718 6.660156 4.386718 10.609374 0 3.949219-1.597656 7.808594-4.386718 10.597657-2.789063 2.800781-6.660156 4.402343-10.613282 4.402343zm0 0"/></g><path d="m511.421875 123.84375-21.097656-73.84375c-7.933594-27.757812-36.757813-49.5-65.625-49.5h-337.398438c-28.867187 0-57.691406 21.742188-65.625 49.5l-21.097656 73.84375c-.382813 1.339844-.578125 2.730469-.578125 4.121094v48.199218c0 34.851563 28.351562 63.203126 63.199219 63.203126 29.683593 0 54.652343-20.570313 61.402343-48.203126h69.996094c6.753906 27.632813 31.71875 48.203126 61.402344 48.203126s54.648438-20.570313 61.398438-48.203126h70c6.75 27.632813 31.71875 48.203126 61.398437 48.203126 34.851563 0 63.203125-28.351563 63.203125-63.203126v-48.199218c0-1.390625-.195312-2.777344-.578125-4.121094zm0 0" fill="#ff5b5b"/><path d="m511.421875 123.84375h-510.84375c-.382813 1.339844-.578125 2.730469-.578125 4.121094v48.199218c0 34.851563 28.351562 63.203126 63.199219 63.203126 29.683593 0 54.652343-20.570313 61.402343-48.203126h69.996094c6.753906 27.632813 31.71875 48.203126 61.402344 48.203126s54.648438-20.570313 61.398438-48.203126h70c6.75 27.632813 31.71875 48.203126 61.398437 48.203126 34.851563 0 63.203125-28.351563 63.203125-63.203126v-48.199218c0-1.390625-.195312-2.777344-.578125-4.121094zm0 0" fill="#1fbf66"/><path d="m511.421875 123.84375h-510.84375c-.382813 1.339844-.578125 2.730469-.578125 4.121094v48.199218c0 34.851563 28.351562 63.203126 63.199219 63.203126 29.683593 0 54.652343-20.570313 61.402343-48.203126h69.996094c6.753906 27.632813 31.71875 48.203126 61.402344 48.203126s54.648438-20.570313 61.398438-48.203126h70c6.75 27.632813 31.71875 48.203126 61.398437 48.203126 34.851563 0 63.203125-28.351563 63.203125-63.203126v-48.199218c0-1.390625-.195312-2.777344-.578125-4.121094zm0 0" fill="#ff3980"/><path d="m511.421875 123.84375-21.097656-73.84375c-7.933594-27.757812-36.757813-49.5-65.625-49.5h-168.699219v238.867188c29.683594 0 54.648438-20.570313 61.398438-48.203126h70c6.75 27.632813 31.71875 48.203126 61.398437 48.203126 34.851563 0 63.203125-28.351563 63.203125-63.203126v-48.199218c0-1.390625-.195312-2.777344-.578125-4.121094zm0 0" fill="#ff3980"/><path d="m511.421875 123.84375h-255.421875v115.523438c29.683594 0 54.648438-20.570313 61.398438-48.203126h70c6.75 27.632813 31.71875 48.203126 61.398437 48.203126 34.851563 0 63.203125-28.351563 63.203125-63.203126v-48.199218c0-1.390625-.195312-2.777344-.578125-4.121094zm0 0" fill="#dd226e"/><path d="m96.398438 123.84375v52.320312c0 34.851563 28.355468 63.203126 63.199218 63.203126 34.851563 0 63.203125-28.351563 63.203125-63.203126v-52.320312zm0 0" fill="#fff"/><path d="m289.199219 123.84375v52.320312c0 34.851563 28.351562 63.203126 63.199219 63.203126 34.847656 0 63.199218-28.351563 63.199218-63.203126v-52.320312zm0 0" fill="#d7e9fd"/></svg>