<?xml version="1.0" standalone="no"?>
<!DOCTYPE svg PUBLIC "-//W3C//DTD SVG 20010904//EN"
 "http://www.w3.org/TR/2001/REC-SVG-20010904/DTD/svg10.dtd">
<svg version="1.0" xmlns="http://www.w3.org/2000/svg"
 width="1200.000000pt" height="1200.000000pt" viewBox="0 0 1200.000000 1200.000000"
 preserveAspectRatio="xMidYMid meet">

<g transform="translate(0.000000,1200.000000) scale(0.100000,-0.100000)"
fill="#000000" stroke="none">
<path d="M7560 11279 c-102 -4 -207 -7 -235 -8 -29 -1 -45 -5 -37 -9 7 -5 -15
-6 -49 -4 -38 3 -60 1 -56 -5 4 -6 -16 -8 -51 -6 -37 3 -52 1 -44 -5 9 -6 -5
-8 -40 -5 -36 3 -49 1 -39 -5 9 -7 -2 -8 -35 -5 -33 3 -45 1 -35 -5 9 -7 -2
-8 -35 -5 -35 3 -45 2 -35 -6 11 -7 2 -8 -30 -5 -32 4 -40 3 -29 -5 11 -8 5
-9 -24 -4 -24 4 -37 2 -33 -3 3 -6 -10 -8 -31 -6 -28 2 -33 1 -22 -7 11 -8 4
-9 -24 -4 -24 4 -37 2 -33 -4 4 -5 -6 -8 -25 -5 -19 3 -28 1 -25 -5 4 -6 -4
-8 -20 -5 -15 3 -24 1 -20 -5 4 -5 -7 -8 -25 -5 -19 3 -28 1 -25 -5 4 -6 -4
-8 -20 -5 -16 3 -24 1 -20 -5 4 -6 -4 -8 -20 -5 -16 3 -24 1 -20 -5 4 -6 -4
-8 -20 -5 -16 3 -24 1 -20 -5 4 -6 -4 -8 -20 -5 -16 3 -24 1 -20 -5 4 -6 -4
-8 -20 -5 -19 4 -24 2 -18 -8 5 -8 4 -11 -2 -7 -14 9 -74 -3 -68 -13 2 -4 -7
-5 -22 -2 -17 3 -24 1 -19 -6 4 -6 -2 -8 -16 -4 -13 3 -19 1 -15 -5 5 -7 -1
-9 -15 -5 -13 3 -19 1 -15 -5 4 -6 -4 -8 -20 -5 -17 3 -24 1 -19 -6 4 -6 -2
-8 -16 -4 -13 3 -19 1 -15 -5 5 -7 -1 -9 -15 -5 -13 3 -19 1 -15 -5 5 -7 -1
-9 -15 -5 -13 3 -19 1 -15 -5 5 -7 -1 -9 -15 -5 -13 3 -19 1 -15 -5 5 -7 -1
-9 -15 -5 -13 3 -19 1 -15 -5 5 -7 -1 -9 -15 -5 -13 3 -19 1 -15 -5 5 -7 -1
-9 -15 -5 -16 4 -19 2 -13 -8 5 -8 4 -11 -2 -7 -14 9 -83 -14 -76 -26 3 -6 1
-7 -6 -3 -14 9 -53 -2 -46 -14 3 -4 -5 -6 -17 -2 -13 3 -19 1 -15 -5 4 -6 1
-11 -6 -10 -31 1 -48 -4 -43 -12 3 -5 0 -9 -7 -8 -31 1 -48 -4 -43 -12 3 -5 0
-9 -7 -8 -32 1 -48 -4 -42 -13 4 -6 -1 -7 -11 -3 -13 5 -15 3 -9 -7 5 -8 4
-11 -2 -7 -14 9 -76 -17 -66 -27 4 -4 -1 -4 -11 0 -15 6 -17 4 -11 -6 5 -8 4
-11 -2 -7 -14 9 -116 -36 -106 -46 4 -5 -1 -5 -11 -1 -15 6 -17 4 -11 -6 5 -8
4 -11 -3 -7 -15 10 -43 -3 -35 -16 3 -6 1 -7 -6 -3 -14 9 -252 -115 -244 -128
3 -5 1 -6 -5 -2 -12 7 -82 -31 -82 -45 0 -5 -3 -8 -7 -7 -16 4 -53 -14 -47
-23 3 -5 2 -8 -3 -7 -14 4 -53 -13 -49 -21 3 -4 -1 -8 -8 -8 -18 0 -116 -63
-116 -74 0 -5 -4 -8 -8 -7 -15 5 -161 -96 -155 -106 3 -5 1 -6 -5 -2 -7 4 -22
-3 -35 -16 -13 -13 -27 -24 -32 -26 -31 -8 -333 -247 -400 -316 -27 -28 -44
-42 -36 -31 7 11 -18 -12 -55 -50 -38 -39 -60 -59 -50 -45 54 71 -385 -384
-478 -495 -152 -182 -317 -405 -309 -417 3 -6 2 -8 -3 -5 -11 6 -137 -177
-137 -198 0 -8 -3 -12 -7 -10 -10 6 -51 -71 -42 -80 4 -5 1 -5 -5 -1 -12 6
-18 -5 -14 -26 0 -5 -3 -8 -9 -8 -13 0 -41 -56 -32 -65 4 -5 2 -5 -5 -1 -7 4
-14 -3 -19 -16 -4 -13 -5 -24 -3 -25 2 -1 -5 -8 -15 -16 -12 -9 -16 -19 -11
-28 5 -8 4 -11 0 -6 -11 10 -78 -110 -69 -125 4 -6 3 -8 -2 -5 -13 7 -117
-201 -108 -215 4 -7 2 -8 -4 -4 -7 4 -12 2 -12 -3 0 -6 -4 -11 -9 -11 -8 0
-183 215 -278 342 -28 37 -54 64 -58 60 -5 -4 -5 -2 -2 4 8 14 -37 77 -47 66
-4 -4 -6 -2 -5 3 5 16 -34 75 -44 68 -6 -3 -7 -2 -4 4 7 11 -39 83 -54 83 -6
0 -8 4 -5 8 7 12 -89 154 -98 145 -4 -5 -6 -3 -5 2 5 19 -12 55 -23 49 -6 -4
-9 -3 -5 2 7 13 -38 86 -47 76 -4 -4 -6 -2 -5 3 5 17 -12 56 -22 49 -5 -3 -8
-2 -7 3 4 17 -14 53 -24 47 -7 -4 -8 -2 -4 4 8 14 -28 74 -39 64 -5 -4 -5 -2
-1 5 8 15 -28 76 -39 65 -5 -4 -5 -1 0 7 5 9 2 19 -10 28 -11 7 -16 13 -12 13
4 0 -2 18 -13 40 -11 22 -26 40 -32 40 -6 0 -9 3 -5 6 13 13 -23 35 -48 28
-18 -4 -25 -13 -25 -31 0 -13 4 -22 9 -19 5 4 7 -12 4 -36 -4 -24 -2 -39 3
-35 5 3 8 -13 6 -36 -2 -31 -1 -38 7 -27 8 11 9 4 4 -24 -4 -24 -2 -37 3 -33
6 3 8 -10 6 -31 -2 -28 -1 -33 7 -22 8 11 9 4 4 -24 -4 -24 -2 -37 4 -33 5 4
8 -7 5 -26 -3 -25 -1 -29 7 -17 8 11 9 7 4 -19 -4 -21 -2 -32 4 -28 5 4 8 -6
5 -25 -3 -19 -1 -28 5 -25 6 4 8 -4 5 -20 -3 -16 -1 -24 5 -20 6 4 8 -4 5 -20
-3 -16 -1 -24 5 -20 6 4 8 -4 5 -20 -3 -16 -1 -24 5 -20 6 4 8 -4 5 -20 -3
-16 -1 -24 5 -20 6 4 8 -4 5 -20 -3 -16 -1 -24 5 -20 6 4 8 -4 5 -20 -3 -17
-1 -24 6 -19 6 4 8 -2 4 -16 -3 -13 -1 -19 5 -15 6 4 8 -4 5 -20 -3 -17 -1
-24 6 -19 6 4 8 -2 4 -16 -3 -13 -1 -19 5 -15 6 4 8 -4 5 -20 -3 -17 -1 -24 6
-19 6 4 8 -2 4 -16 -3 -13 -1 -19 5 -15 7 5 9 -1 5 -15 -4 -16 -2 -19 8 -13 9
5 11 4 6 -3 -8 -14 34 -153 45 -146 4 2 5 -6 1 -18 -3 -13 -1 -19 5 -15 7 5 9
-1 5 -15 -3 -13 -1 -19 5 -15 7 5 9 -1 5 -15 -3 -13 -1 -19 5 -15 6 4 11 1 10
-6 -1 -34 4 -48 15 -41 7 4 8 3 4 -5 -9 -14 2 -53 14 -46 4 3 6 -5 2 -17 -3
-13 -1 -19 5 -15 6 4 11 1 10 -6 -1 -34 4 -48 15 -41 6 4 8 3 5 -3 -8 -13 16
-76 25 -67 3 3 6 -1 5 -8 -1 -32 4 -49 13 -43 6 4 7 -1 3 -11 -5 -13 -3 -15 7
-9 8 5 11 4 7 -2 -9 -14 33 -114 44 -107 5 3 6 -3 2 -12 -5 -13 -3 -15 7 -9 8
5 11 4 6 -3 -9 -14 105 -242 118 -235 5 3 6 1 2 -5 -7 -11 47 -116 55 -107 6
5 10 -24 12 -97 2 -33 -1 -54 -7 -51 -5 4 -7 -3 -4 -15 4 -14 2 -20 -4 -16 -7
5 -9 -2 -6 -19 3 -15 2 -24 -2 -22 -10 6 -22 -54 -13 -68 4 -6 1 -7 -7 -2 -10
6 -12 1 -8 -18 3 -16 1 -24 -5 -20 -6 4 -8 -4 -5 -20 3 -16 1 -24 -5 -20 -6 4
-8 -4 -5 -20 3 -16 1 -24 -5 -20 -6 4 -8 -4 -5 -20 3 -16 1 -24 -5 -20 -6 3
-8 -6 -5 -25 3 -18 0 -29 -5 -25 -6 4 -8 -5 -5 -20 3 -16 1 -24 -5 -20 -6 3
-8 -6 -5 -25 3 -18 0 -29 -5 -25 -6 3 -8 -7 -5 -25 3 -18 0 -29 -5 -25 -6 3
-8 -7 -5 -25 3 -18 0 -29 -5 -25 -6 3 -8 -7 -5 -25 3 -19 0 -29 -5 -25 -6 4
-8 -10 -4 -37 4 -31 3 -40 -4 -29 -8 10 -9 1 -5 -30 3 -32 2 -41 -5 -30 -8 10
-9 0 -6 -35 3 -33 2 -44 -5 -35 -6 10 -8 -2 -5 -35 3 -33 2 -44 -5 -35 -6 10
-8 -3 -5 -39 3 -35 1 -49 -5 -40 -6 8 -8 -10 -5 -52 3 -43 2 -58 -4 -45 -6 13
-8 -5 -5 -55 2 -41 0 -66 -4 -55 -11 30 -20 -183 -20 -465 0 -282 9 -495 20
-465 4 11 6 -14 4 -55 -3 -50 -1 -68 5 -55 6 13 7 -2 4 -45 -3 -42 -1 -60 5
-52 6 9 8 -5 5 -40 -3 -36 -1 -49 5 -39 7 9 8 -2 5 -35 -3 -33 -1 -45 5 -35 7
9 8 -2 5 -35 -3 -35 -2 -45 6 -35 7 11 8 2 5 -30 -4 -31 -3 -40 5 -30 7 11 8
2 4 -29 -4 -27 -2 -41 4 -37 5 4 8 -6 5 -25 -3 -18 -1 -28 5 -25 5 4 8 -7 5
-25 -3 -18 -1 -28 5 -25 5 4 8 -7 5 -25 -3 -18 -1 -28 5 -25 5 4 8 -7 5 -25
-3 -19 -1 -28 5 -25 6 4 8 -4 5 -20 -3 -15 -1 -24 5 -20 5 4 8 -7 5 -25 -3
-19 -1 -28 5 -25 6 4 8 -4 5 -20 -3 -16 -1 -24 5 -20 6 4 8 -4 5 -20 -3 -16
-1 -24 5 -20 6 4 8 -4 5 -20 -3 -16 -1 -24 5 -20 6 4 8 -4 5 -20 -4 -19 -2
-24 8 -18 8 5 11 4 7 -2 -9 -14 3 -74 13 -68 4 2 5 -7 2 -22 -3 -17 -1 -24 6
-19 6 4 8 -2 4 -16 -4 -16 -2 -19 8 -13 8 5 11 4 7 -2 -9 -14 3 -74 13 -68 5
3 6 -5 2 -17 -3 -13 -1 -19 5 -15 7 5 9 -1 5 -15 -4 -16 -2 -19 8 -13 9 5 11
4 6 -3 -8 -14 34 -153 45 -146 4 2 5 -6 1 -18 -3 -13 -1 -19 5 -15 7 5 9 -1 5
-15 -3 -13 -1 -19 5 -15 6 4 11 1 10 -6 -1 -31 4 -48 12 -43 5 4 7 -4 3 -16
-4 -16 -2 -19 8 -13 8 5 11 4 7 -2 -8 -13 14 -84 24 -77 5 3 6 -3 2 -12 -4
-11 -2 -15 4 -11 6 4 11 1 10 -6 -1 -32 4 -48 13 -42 6 3 7 -1 4 -9 -3 -9 -1
-16 6 -16 6 0 9 -4 6 -9 -8 -12 4 -42 14 -36 4 3 8 -1 7 -8 -1 -32 4 -48 13
-42 6 4 7 -1 3 -11 -5 -13 -3 -15 7 -9 8 5 11 4 7 -2 -9 -14 33 -114 44 -107
5 3 6 -3 2 -12 -5 -13 -3 -15 7 -9 8 5 11 4 6 -3 -9 -14 85 -202 97 -195 6 3
7 1 3 -5 -9 -15 58 -135 69 -125 4 5 5 2 0 -6 -5 -9 -2 -19 9 -27 10 -7 16
-14 15 -16 -7 -11 14 -47 24 -42 7 4 9 4 5 -1 -9 -9 19 -65 32 -65 6 0 9 -3 9
-7 -4 -22 2 -33 14 -27 6 4 9 4 5 -1 -9 -9 32 -86 42 -80 4 2 7 -2 7 -9 0 -21
126 -205 137 -199 5 3 6 2 3 -4 -8 -13 37 -75 48 -65 5 4 5 2 2 -4 -11 -19
177 -259 374 -479 108 -121 408 -421 364 -365 -11 14 11 -6 49 -45 37 -38 62
-61 55 -50 -8 11 9 -3 36 -31 69 -70 389 -324 401 -317 2 2 15 -9 29 -23 14
-14 30 -22 37 -18 6 4 9 3 5 -2 -6 -10 141 -111 155 -106 4 1 8 -2 8 -7 0 -5
31 -29 70 -52 49 -31 82 -61 115 -106 26 -35 49 -63 52 -63 2 0 -12 23 -32 50
-38 51 -38 58 -4 40 37 -20 19 -1 -20 21 -24 13 -56 47 -82 85 -24 34 -47 60
-53 57 -5 -3 -6 -2 -3 4 8 13 -67 125 -78 116 -4 -5 -5 -3 -2 3 8 14 -56 117
-67 107 -4 -4 -6 -3 -5 2 5 17 -12 56 -22 49 -5 -3 -8 -2 -7 3 4 16 -14 53
-23 47 -5 -3 -8 -2 -7 3 4 16 -14 53 -23 47 -5 -3 -8 -2 -7 3 4 17 -14 53 -24
47 -7 -4 -8 -2 -4 4 8 14 -28 74 -39 64 -5 -4 -5 -2 -2 5 9 14 -37 96 -48 86
-4 -5 -6 -3 -2 3 7 12 -168 365 -177 356 -4 -3 -4 2 0 12 6 15 4 17 -6 11 -8
-5 -11 -4 -7 2 9 14 -17 76 -27 66 -4 -4 -4 1 0 11 6 15 4 17 -6 11 -8 -5 -11
-4 -7 2 9 14 -17 76 -27 66 -4 -4 -4 1 0 11 5 13 4 17 -3 13 -6 -4 -11 -1 -10
6 1 31 -4 48 -12 43 -5 -3 -9 0 -8 7 1 31 -4 48 -12 43 -5 -3 -9 0 -8 7 1 31
-4 48 -12 43 -5 -3 -9 0 -8 7 1 31 -4 48 -12 43 -5 -3 -9 0 -8 7 1 31 -4 48
-12 43 -5 -4 -7 4 -3 16 4 16 2 19 -8 13 -8 -5 -11 -4 -7 2 8 13 -14 84 -24
78 -4 -3 -5 5 -1 17 3 13 1 19 -5 15 -7 -5 -9 1 -5 15 3 13 1 19 -5 15 -7 -5
-9 1 -5 15 3 13 1 19 -5 15 -7 -5 -9 1 -5 15 3 13 1 19 -5 15 -7 -5 -9 1 -5
15 3 13 1 19 -5 15 -7 -5 -9 1 -5 15 3 13 1 19 -5 15 -7 -5 -9 1 -5 15 3 13 1
19 -5 15 -7 -5 -9 1 -5 15 3 13 1 19 -5 15 -7 -5 -9 1 -5 15 4 16 2 19 -8 13
-8 -5 -11 -4 -7 2 9 14 -3 74 -13 68 -5 -3 -6 5 -2 17 3 13 1 19 -5 15 -6 -4
-8 4 -5 20 3 17 1 24 -6 19 -6 -4 -8 2 -4 16 3 13 1 19 -5 15 -6 -4 -8 4 -5
20 3 16 1 24 -5 20 -6 -4 -8 4 -5 20 3 17 1 24 -6 19 -6 -4 -8 2 -4 16 3 13 1
19 -5 15 -6 -4 -8 4 -5 20 3 16 1 24 -5 20 -6 -4 -8 4 -5 20 3 15 1 24 -5 20
-5 -4 -8 7 -5 25 3 19 1 28 -5 25 -6 -4 -8 4 -5 20 3 16 1 24 -5 20 -6 -4 -8
4 -5 20 3 15 1 24 -5 20 -5 -4 -8 7 -5 25 3 19 1 28 -5 25 -6 -4 -8 4 -5 20 3
15 1 24 -5 20 -5 -4 -8 7 -5 25 3 18 1 28 -5 25 -5 -4 -8 7 -5 25 3 17 1 28
-5 25 -5 -3 -7 10 -5 31 2 28 1 33 -7 22 -8 -11 -9 -4 -4 24 4 24 2 37 -3 33
-6 -3 -8 9 -6 30 3 20 1 33 -5 30 -5 -3 -7 10 -5 30 3 20 0 33 -4 30 -5 -3 -8
13 -6 36 2 29 0 38 -6 28 -7 -9 -8 2 -5 35 3 32 1 44 -5 36 -6 -9 -8 5 -5 40
3 34 1 48 -5 40 -6 -9 -8 5 -5 40 3 32 1 48 -4 40 -6 -7 -8 12 -6 50 2 42 0
56 -6 43 -5 -13 -7 7 -4 55 2 41 1 70 -4 63 -5 -6 -8 26 -8 75 0 48 -2 170 -4
272 -4 162 -6 174 -11 95 -5 -70 -6 -51 -6 85 0 131 1 154 6 90 5 -73 7 -60
11 95 2 99 4 219 4 267 0 49 3 81 8 75 5 -7 6 22 4 63 -3 48 -1 68 4 55 6 -13
8 1 6 43 -2 38 0 57 6 50 5 -8 7 8 4 40 -3 35 -1 49 5 40 6 -8 8 6 5 40 -3 35
-1 49 5 40 6 -8 8 4 5 36 -3 33 -2 44 5 35 6 -10 8 -1 6 28 -2 23 1 39 6 36 4
-3 7 10 4 30 -2 20 0 33 5 30 6 -3 8 10 5 30 -3 31 -2 34 13 27 9 -5 19 -7 23
-5 3 3 4 2 1 -1 -7 -10 136 -114 148 -107 6 3 7 2 4 -4 -7 -11 235 -176 258
-176 8 0 13 -3 10 -6 -9 -8 85 -62 97 -55 6 4 8 3 4 -4 -6 -11 30 -28 49 -23
5 1 7 -1 2 -5 -10 -10 72 -56 86 -47 5 3 7 1 3 -5 -6 -10 30 -28 47 -24 4 1 7
-2 7 -8 0 -14 268 -142 281 -134 8 5 9 3 4 -6 -6 -10 -4 -12 11 -6 10 4 15 4
11 0 -10 -10 52 -36 67 -27 6 3 8 2 3 -2 -9 -11 51 -37 66 -28 6 3 7 1 3 -5
-7 -11 7 -16 41 -15 7 1 10 -3 7 -8 -5 -8 12 -13 43 -12 7 1 10 -3 7 -8 -5 -8
12 -13 43 -12 7 1 10 -4 6 -10 -4 -6 2 -8 15 -5 14 4 20 2 15 -5 -4 -6 2 -8
15 -5 12 4 20 3 17 -1 -6 -10 65 -32 78 -24 6 4 7 1 2 -7 -6 -10 -3 -12 13 -8
14 4 20 2 15 -5 -4 -6 2 -8 15 -5 14 4 20 2 15 -5 -4 -6 2 -8 15 -5 12 4 20 3
17 -2 -6 -10 54 -22 68 -13 6 4 7 1 2 -7 -6 -10 -3 -12 13 -8 12 4 20 3 17 -2
-6 -10 54 -22 68 -13 5 3 7 1 4 -4 -8 -12 50 -26 66 -16 6 4 7 1 2 -7 -6 -10
-1 -12 18 -8 16 3 24 1 20 -5 -4 -6 4 -8 20 -5 16 3 24 1 20 -5 -4 -6 4 -8 20
-5 16 3 24 1 20 -5 -4 -6 4 -8 20 -5 16 3 24 1 20 -5 -3 -6 6 -8 25 -5 18 3
29 0 25 -5 -4 -6 5 -8 20 -5 16 3 24 1 20 -5 -3 -6 6 -8 25 -5 18 3 29 0 25
-5 -3 -6 7 -8 25 -5 18 2 28 0 25 -5 -3 -6 9 -8 30 -5 21 2 33 0 30 -6 -4 -5
9 -7 33 -3 29 5 35 4 24 -4 -11 -8 -3 -9 29 -5 32 3 41 2 30 -5 -10 -8 0 -9
35 -6 33 3 44 2 35 -5 -10 -6 3 -8 39 -5 35 3 49 1 40 -5 -8 -6 6 -8 40 -5 35
3 49 1 40 -5 -8 -6 12 -8 57 -5 45 3 63 1 50 -4 -13 -6 12 -8 69 -6 50 2 81 0
70 -4 -10 -4 123 -8 296 -8 173 0 306 4 296 8 -11 4 20 6 70 4 57 -2 82 0 69
6 -13 5 5 7 50 4 45 -3 65 -1 57 5 -9 6 5 8 40 5 34 -3 48 -1 40 5 -9 6 5 8
40 5 36 -3 49 -1 39 5 -9 7 2 8 35 5 35 -3 45 -2 35 6 -11 7 -2 8 30 5 32 -4
40 -3 29 5 -11 8 -5 9 24 4 24 -4 37 -2 33 3 -3 6 9 8 30 6 21 -3 33 -1 30 5
-3 5 7 7 25 5 19 -3 28 -1 25 5 -4 6 4 8 18 5 14 -2 25 0 25 5 0 6 12 8 26 5
16 -3 25 -1 21 5 -4 5 7 8 25 5 19 -3 28 -1 25 5 -4 6 4 8 20 5 16 -3 24 -1
20 5 -4 6 4 8 20 5 16 -3 24 -1 20 5 -4 6 4 8 20 5 16 -3 24 -1 20 5 -4 6 4 8
20 5 19 -4 24 -2 18 8 -5 8 -4 11 2 7 16 -10 74 4 66 16 -3 5 -1 7 4 4 14 -9
74 3 68 13 -3 5 5 6 17 2 16 -4 19 -2 13 8 -5 8 -4 11 2 7 14 -9 74 3 68 13
-3 5 5 6 17 2 13 -3 19 -1 15 5 -5 7 1 9 15 5 13 -3 19 -1 15 5 -5 7 1 9 15 5
16 -4 19 -2 13 8 -5 8 -4 11 2 7 13 -8 84 14 78 24 -3 4 5 5 17 1 13 -3 19 -1
15 5 -5 7 1 9 15 5 13 -3 19 -1 15 5 -4 6 -1 11 6 10 31 -1 48 4 43 12 -3 5 0
9 7 8 31 -1 48 4 43 12 -3 5 0 9 7 8 34 -1 48 4 41 15 -4 6 -3 8 3 5 15 -9 75
17 66 28 -5 4 -3 5 3 2 15 -9 77 17 67 27 -4 4 1 4 11 0 15 -6 17 -4 11 6 -5
9 -4 11 4 6 15 -10 342 154 334 167 -3 5 -1 7 4 4 14 -9 96 37 86 47 -5 4 -3
6 2 5 19 -5 55 12 49 23 -4 7 -2 8 4 4 15 -9 55 18 44 29 -4 5 -1 5 5 1 13 -7
57 17 48 26 -3 2 2 5 10 5 19 0 265 164 260 173 -2 4 2 7 9 7 30 0 337 248
540 436 108 101 111 102 328 209 120 59 218 109 218 112 0 4 -80 -34 -177 -83
-98 -48 -189 -92 -202 -96 -16 -5 14 34 95 121 104 113 287 330 303 359 7 13
-21 -21 -137 -160 -148 -177 -319 -352 -357 -365 -19 -6 -33 -15 -30 -20 3 -4
-1 -8 -8 -7 -32 1 -48 -4 -42 -13 4 -6 -1 -7 -11 -3 -11 4 -15 2 -11 -4 4 -6
1 -11 -6 -10 -31 1 -48 -4 -43 -12 3 -5 0 -9 -7 -8 -31 1 -48 -4 -43 -12 3 -5
0 -9 -7 -8 -31 1 -48 -4 -43 -12 3 -5 0 -9 -7 -8 -31 1 -48 -4 -43 -12 4 -5
-4 -7 -16 -3 -13 3 -19 1 -15 -5 4 -6 1 -11 -6 -10 -31 1 -48 -4 -43 -12 4 -5
-4 -7 -16 -3 -14 3 -19 1 -14 -6 5 -8 2 -10 -8 -6 -9 3 -16 2 -16 -4 0 -5 -6
-10 -12 -9 -32 1 -49 -4 -44 -12 4 -5 -4 -7 -16 -3 -13 3 -19 1 -15 -5 5 -7
-1 -9 -15 -5 -13 3 -19 1 -15 -5 5 -7 -1 -9 -15 -5 -13 3 -19 1 -15 -5 5 -7
-1 -9 -15 -5 -13 3 -19 1 -15 -5 5 -7 -1 -9 -15 -5 -16 4 -19 2 -13 -8 5 -8 4
-11 -2 -7 -14 9 -74 -3 -68 -13 3 -5 -5 -6 -17 -2 -13 3 -19 1 -15 -5 5 -7 -1
-9 -15 -5 -13 3 -19 1 -15 -5 4 -6 -4 -8 -20 -5 -17 3 -24 1 -19 -6 4 -6 -2
-8 -16 -4 -13 3 -19 1 -15 -5 4 -6 -4 -8 -20 -5 -17 3 -24 1 -19 -6 4 -6 -2
-8 -16 -4 -13 3 -19 1 -15 -5 4 -6 -4 -8 -20 -5 -16 3 -24 1 -20 -5 4 -6 -4
-8 -20 -5 -16 3 -24 1 -20 -5 4 -6 -4 -8 -20 -5 -15 3 -24 1 -20 -5 3 -5 -2
-9 -11 -9 -48 0 -73 -5 -68 -13 3 -4 -6 -6 -21 -3 -16 3 -24 1 -20 -5 4 -6 -4
-8 -20 -5 -15 3 -24 1 -20 -5 4 -5 -7 -8 -25 -5 -19 3 -28 1 -25 -5 4 -6 -4
-8 -20 -5 -15 3 -24 1 -20 -5 4 -5 -7 -8 -25 -5 -18 3 -28 1 -25 -5 4 -5 -7
-8 -25 -5 -18 3 -28 1 -25 -5 4 -5 -7 -8 -25 -5 -17 3 -28 1 -25 -5 3 -5 -10
-7 -30 -5 -20 3 -33 1 -30 -5 3 -5 -10 -7 -30 -5 -20 3 -33 1 -30 -5 3 -5 -11
-7 -31 -5 -26 2 -33 0 -23 -6 9 -7 -2 -8 -35 -5 -33 3 -45 1 -35 -5 9 -7 -2
-8 -35 -5 -32 3 -44 1 -36 -5 9 -6 -5 -8 -40 -5 -34 3 -48 1 -40 -5 9 -6 -5
-8 -40 -5 -32 3 -48 1 -40 -4 7 -6 -12 -8 -50 -6 -42 2 -56 0 -43 -6 13 -5 -7
-7 -55 -5 -45 3 -67 1 -56 -4 11 -5 -20 -7 -75 -5 -52 1 -84 -1 -71 -5 13 -4
-157 -7 -378 -7 -221 0 -391 3 -378 7 13 4 -19 6 -71 5 -55 -2 -86 0 -75 5 11
5 -11 7 -56 4 -48 -2 -68 0 -55 5 13 6 -1 8 -43 6 -38 -2 -57 0 -50 6 8 5 -8
7 -40 4 -35 -3 -49 -1 -40 5 8 6 -6 8 -40 5 -35 -3 -49 -1 -40 5 8 6 -4 8 -36
5 -33 -3 -44 -2 -35 5 10 6 -2 8 -35 5 -33 -3 -44 -2 -35 5 10 6 3 8 -23 6
-20 -2 -34 0 -31 5 3 6 -10 8 -30 5 -20 -2 -33 0 -30 5 3 6 -10 8 -30 5 -20
-2 -33 0 -30 5 3 6 -8 8 -25 5 -18 -3 -29 0 -25 5 3 6 -7 8 -25 5 -18 -3 -29
0 -25 5 3 6 -7 8 -25 5 -18 -3 -29 0 -25 5 4 6 -5 8 -20 5 -16 -3 -24 -1 -20
5 3 6 -6 8 -25 5 -18 -3 -29 0 -25 5 4 6 -5 8 -20 5 -16 -3 -24 -1 -20 5 4 6
-4 8 -20 5 -15 -3 -24 -1 -21 3 5 8 -20 13 -68 13 -9 0 -14 4 -11 9 4 6 -5 8
-20 5 -16 -3 -24 -1 -20 5 4 6 -4 8 -20 5 -16 -3 -24 -1 -20 5 4 6 -4 8 -20 5
-16 -3 -24 -1 -20 5 4 6 -2 8 -15 5 -14 -4 -20 -2 -16 4 5 7 -2 9 -19 6 -16
-3 -24 -1 -20 5 4 6 -2 8 -15 5 -14 -4 -20 -2 -16 4 5 7 -2 9 -19 6 -16 -3
-24 -1 -20 5 4 6 -2 8 -15 5 -14 -4 -20 -2 -15 5 4 6 -2 8 -15 5 -12 -4 -20
-3 -17 2 6 10 -54 22 -68 13 -6 -4 -7 -1 -2 7 6 10 3 12 -13 8 -14 -4 -20 -2
-15 5 4 6 -2 8 -15 5 -14 -4 -20 -2 -15 5 4 6 -2 8 -15 5 -14 -4 -20 -2 -15 5
4 6 -2 8 -15 5 -14 -4 -20 -2 -15 5 4 6 -2 8 -15 5 -12 -4 -20 -2 -16 3 5 8
-12 13 -43 12 -7 -1 -13 4 -13 9 0 6 -7 7 -16 4 -10 -4 -13 -2 -8 6 5 7 0 9
-14 6 -12 -4 -20 -2 -16 3 5 8 -12 13 -43 12 -7 -1 -10 4 -6 10 4 6 -2 8 -15
5 -12 -4 -20 -2 -16 3 5 8 -12 13 -43 12 -7 -1 -10 3 -7 8 5 8 -12 13 -43 12
-7 -1 -10 3 -7 8 5 8 -12 13 -43 12 -7 -1 -10 3 -7 8 5 8 -12 13 -43 12 -7 -1
-10 4 -6 10 4 6 0 8 -11 4 -10 -4 -15 -3 -11 3 6 9 -10 14 -42 13 -7 -1 -10 4
-6 10 4 7 0 8 -13 3 -10 -4 -15 -4 -11 0 10 10 -52 36 -66 27 -6 -4 -7 -1 -2
7 6 10 4 12 -11 6 -10 -4 -15 -4 -11 1 10 10 -92 55 -106 46 -6 -4 -7 -1 -2 7
6 10 4 12 -9 7 -9 -4 -15 -3 -12 1 7 11 -143 84 -156 76 -6 -4 -8 -3 -5 3 3 5
-17 21 -45 34 -28 13 -53 22 -54 19 -2 -3 -9 4 -17 14 -9 12 -19 16 -28 11 -8
-5 -11 -4 -6 0 10 11 -70 58 -85 49 -6 -4 -8 -3 -4 4 6 10 -30 28 -47 24 -5
-1 -6 2 -3 7 6 9 -31 27 -47 23 -5 -1 -6 2 -3 7 6 9 -31 27 -47 23 -5 -1 -6 2
-3 7 6 9 -31 27 -47 23 -5 -1 -6 1 -3 6 6 10 -68 54 -78 47 -3 -3 -4 -2 -1 2
6 8 -196 139 -211 135 -6 -1 -17 6 -25 15 -11 15 -11 16 1 6 22 -20 32 -15 19
8 -6 12 -7 19 -2 16 12 -7 35 62 26 76 -4 6 -1 7 7 2 10 -6 12 -3 8 13 -4 12
-2 20 3 16 8 -5 13 12 12 43 -1 7 3 10 8 7 8 -5 13 12 12 43 -1 7 3 10 8 7 8
-5 13 12 12 43 -1 7 3 10 8 7 8 -5 13 12 12 43 -1 7 3 10 8 7 8 -5 13 12 12
43 -1 7 4 10 10 6 7 -4 8 0 3 13 -4 10 -4 15 0 11 10 -10 36 52 27 66 -4 6 -1
7 7 2 10 -6 12 -4 6 11 -4 10 -4 15 0 11 10 -10 36 52 27 66 -4 6 -1 7 7 2 10
-6 12 -4 6 11 -4 10 -4 15 0 12 9 -9 184 344 177 356 -4 6 -2 8 2 3 11 -10 57
72 48 86 -3 7 -3 9 2 5 11 -10 47 50 39 64 -4 6 -3 8 4 4 10 -6 28 30 24 47
-1 5 2 6 7 3 9 -6 27 31 23 47 -1 5 2 6 7 3 9 -6 27 31 23 47 -1 5 2 6 7 3 10
-7 27 32 22 49 -1 5 1 7 5 2 10 -10 74 94 67 108 -4 5 -2 7 2 2 11 -9 86 103
78 117 -3 6 -2 8 2 3 11 -10 76 83 68 97 -3 6 -3 8 2 4 11 -10 116 132 108
146 -3 6 -3 8 2 4 4 -4 44 39 88 95 89 114 226 276 296 351 25 28 37 43 27 35
-11 -7 43 48 120 124 76 77 132 135 124 131 -9 -4 -12 -3 -7 2 5 5 12 9 16 9
8 0 214 188 300 274 29 29 50 47 45 40 -13 -21 84 60 107 90 11 14 17 19 13
11 -4 -8 12 1 37 21 24 20 94 75 156 121 62 47 109 89 105 93 -4 5 -2 5 4 2
12 -7 77 36 69 45 -3 2 1 5 8 5 17 0 267 169 262 177 -3 3 -2 4 1 1 10 -7 84
37 78 47 -3 5 -2 7 3 6 16 -4 53 14 47 23 -3 5 -2 8 3 7 16 -4 53 14 47 23 -3
5 -2 8 3 7 17 -4 53 14 47 24 -4 7 -2 8 4 4 14 -8 74 28 64 39 -4 5 -2 5 5 2
14 -8 96 37 86 47 -4 4 0 4 10 0 10 -4 19 -1 22 8 3 8 11 15 18 15 22 1 336
160 329 167 -3 4 2 4 12 0 15 -6 17 -4 11 6 -5 8 -4 11 2 7 14 -9 95 27 86 37
-4 4 1 4 11 0 13 -5 17 -4 13 3 -4 6 -1 11 6 10 32 -1 48 4 42 13 -4 6 1 7 11
3 12 -4 15 -3 10 5 -4 8 -2 10 7 6 8 -3 21 1 28 9 8 7 20 12 28 9 9 -3 11 0 6
8 -5 9 -4 11 4 6 16 -10 53 3 45 16 -4 7 -2 8 5 4 15 -9 53 3 46 15 -3 5 1 6
9 3 9 -3 16 -2 16 4 0 5 6 10 13 9 31 -1 48 4 43 12 -4 5 4 7 16 3 13 -3 19
-1 15 5 -4 6 -1 11 6 10 31 -1 48 4 43 12 -4 5 4 7 16 3 16 -4 19 -2 13 8 -5
8 -4 11 2 7 13 -8 117 26 108 35 -4 4 3 4 16 1 14 -4 20 -2 16 4 -5 7 1 9 15
5 13 -3 19 -1 15 5 -5 7 1 9 15 5 16 -4 19 -2 13 8 -5 8 -4 11 3 6 13 -8 103
15 96 25 -2 4 6 5 18 1 16 -4 19 -2 13 8 -5 8 -4 11 2 7 14 -9 74 3 68 13 -3
5 5 6 17 2 13 -3 19 -1 15 5 -4 6 4 8 20 5 19 -4 24 -2 18 8 -5 8 -4 11 2 7
14 -9 74 3 68 13 -2 4 7 5 22 2 16 -3 24 -1 20 5 -4 6 4 8 20 5 16 -3 24 -1
20 5 -4 6 4 8 20 5 16 -3 24 -1 20 5 -4 6 4 8 20 5 16 -3 24 -1 20 5 -4 6 4 8
20 5 16 -3 24 -1 20 5 -4 6 4 8 20 5 18 -3 24 -1 19 6 -5 8 2 10 25 5 20 -4
30 -2 26 4 -4 5 7 8 26 5 18 -2 27 0 21 5 -7 4 19 9 60 11 86 3 273 -44 546
-139 194 -67 232 -78 180 -54 -57 27 -406 140 -527 171 -62 16 -113 32 -113
35 0 7 289 53 460 74 69 8 157 19 195 24 l70 10 -75 -5 c-105 -7 -369 -41
-535 -69 -188 -31 -205 -33 -198 -22 3 6 -7 8 -25 5 -18 -3 -29 0 -25 5 4 6
-5 8 -20 5 -16 -3 -24 -1 -20 5 3 6 -6 8 -25 5 -19 -3 -29 0 -25 5 4 6 -9 8
-33 4 -28 -5 -35 -4 -24 4 11 8 6 9 -22 7 -21 -2 -34 0 -31 6 4 5 -9 7 -33 3
-29 -5 -35 -4 -24 4 11 8 3 9 -29 5 -32 -3 -41 -2 -30 5 10 8 0 9 -35 6 -33
-3 -44 -2 -35 5 10 6 -2 8 -35 5 -33 -3 -44 -2 -35 5 10 6 -3 8 -39 5 -35 -3
-49 -1 -40 5 8 6 -7 8 -44 5 -35 -2 -55 0 -51 6 4 6 -18 8 -56 5 -34 -2 -56
-1 -50 3 11 6 -150 16 -371 22 -52 1 -178 -1 -280 -4z m-107 -16 c-7 -2 -19
-2 -25 0 -7 3 -2 5 12 5 14 0 19 -2 13 -5z m620 0 c-7 -2 -19 -2 -25 0 -7 3
-2 5 12 5 14 0 19 -2 13 -5z m-2273 -1757 c0 -2 -8 -10 -17 -17 -16 -13 -17
-12 -4 4 13 16 21 21 21 13z m-2130 -10 c0 -2 -8 -10 -17 -17 -16 -13 -17 -12
-4 4 13 16 21 21 21 13z m1920 -189 c0 -2 -15 -16 -32 -33 l-33 -29 29 33 c28
30 36 37 36 29z m4730 -3211 c0 -2 -8 -10 -17 -17 -16 -13 -17 -12 -4 4 13 16
21 21 21 13z m-8163 -168 c-3 -7 -5 -2 -5 12 0 14 2 19 5 13 2 -7 2 -19 0 -25z
m5681 -315 c-49 -2 -127 -2 -175 0 -49 1 -9 3 87 3 96 0 136 -2 88 -3z m-5681
-325 c-3 -7 -5 -2 -5 12 0 14 2 19 5 13 2 -7 2 -19 0 -25z m1480 -310 c-3 -7
-5 -2 -5 12 0 14 2 19 5 13 2 -7 2 -19 0 -25z m0 -760 c-3 -7 -5 -2 -5 12 0
14 2 19 5 13 2 -7 2 -19 0 -25z m28 -2468 c10 -11 16 -20 13 -20 -3 0 -13 9
-23 20 -10 11 -16 20 -13 20 3 0 13 -9 23 -20z"/>
<path d="M10918 6446 c-53 -31 -61 -43 -13 -18 50 27 73 42 60 41 -5 -1 -27
-11 -47 -23z"/>
<path d="M4960 706 c0 -21 621 -328 636 -314 2 3 -22 15 -54 28 -82 33 -381
180 -489 240 -51 28 -93 49 -93 46z"/>
<path d="M5032 538 c83 -107 298 -358 329 -383 13 -11 3 3 -22 30 -68 74 -215
248 -292 348 -38 48 -71 87 -73 87 -3 0 23 -37 58 -82z"/>
</g>
</svg>
